<svg width="570" height="244" viewBox="0 0 570 244" fill="none" xmlns="http://www.w3.org/2000/svg">
<rect width="89.6584" height="80.9215" rx="20" transform="matrix(-0.961406 0.275133 -0.346107 -0.938195 222.108 102.303)" fill="#5506FD"/>
<rect opacity="0.95" width="51.3357" height="51.7899" rx="20" transform="matrix(0.726992 -0.686646 0.772766 0.634692 355.489 35.2495)" fill="#FFA53C"/>
<rect opacity="0.9" width="95.4035" height="97.9423" rx="20" transform="matrix(0.676822 0.736147 -0.814141 0.580668 521.45 94.1606)" fill="#FF2727"/>
<rect width="80.2955" height="74.2773" rx="20" transform="matrix(0.91881 0.3947 -0.484443 0.874823 35.9829 47)" fill="#8A34CD"/>
<rect width="59.995" height="67.1033" rx="20" transform="matrix(0.272379 -0.96219 0.976727 0.214488 214.633 154.146)" fill="#F0D824"/>
<rect width="76.0343" height="84.8592" rx="20" transform="matrix(0.291053 0.956707 -0.973264 0.22969 346.672 37.6792)" fill="#34CEFF"/>
<rect width="49.7583" height="56.3845" rx="20" transform="matrix(0.0988464 0.995103 -0.997044 0.076829 94.1821 161)" fill="#E71B89"/>
<rect width="59.9274" height="67.1637" rx="20" transform="matrix(0.253557 0.96732 -0.979946 0.199262 195.8 162.691)" fill="#37E954"/>
<rect width="79.3124" height="71.9771" rx="20" transform="matrix(-0.952266 -0.305269 0.381919 -0.924196 388.489 243.634)" fill="#CB37FF"/>
</svg>
