<svg width="751" height="346" viewBox="0 0 751 346" fill="none" xmlns="http://www.w3.org/2000/svg">
<path d="M627.665 326.397C628.299 322.333 632.284 304.905 632.918 302.357C633.552 299.808 634.91 292.919 634.91 292.919C634.91 292.919 625.13 283.964 623.59 279.211C622.051 274.458 621.779 267.707 620.511 267.088C619.243 266.467 609.282 259.372 608.467 259.304C607.651 259.235 606.384 258.201 606.112 257.926C605.841 257.65 602.671 254.206 602.308 252.415C601.946 250.624 601.946 250.624 601.946 250.624C601.946 250.624 601.131 251.519 600.497 251.451C599.864 251.381 599.139 250.899 599.32 250.142C599.501 249.384 599.953 248.764 599.953 248.764C599.953 248.764 599.863 246.904 600.407 246.215C600.95 245.527 601.131 244.7 601.131 244.493C601.131 244.286 601.674 242.427 604.21 241.945C604.21 241.945 603.214 241.187 603.033 240.842C602.851 240.498 605.206 239.534 608.375 240.636C611.545 241.738 612.088 244.08 612.903 244.838C613.718 245.595 614.896 246.767 614.986 248.971C615.077 251.175 615.53 254.275 616.707 255.102C617.884 255.928 625.31 259.717 625.31 259.717C625.31 259.717 626.035 259.786 627.212 260.406C628.389 261.026 633.641 262.954 634.004 262.886C634.366 262.817 634.547 262.059 635.453 261.783C636.358 261.508 639.709 259.441 639.618 258.339C639.528 257.237 639.618 255.584 641.067 253.999C642.516 252.415 649.58 242.565 649.67 240.429C649.761 238.294 651.21 235.814 652.659 234.574C654.108 233.334 657.911 231.267 659.088 230.992C660.265 230.716 660.809 231.061 660.537 229.339C660.265 227.617 660.265 226.928 660.447 225.412C660.628 223.897 661.986 217.973 661.533 217.077C661.533 217.077 661.081 224.31 657.821 226.859C657.821 226.859 660.447 221.348 660.084 218.317C660.084 218.317 659.541 223.345 657.186 224.585C657.186 224.585 660.175 220.521 659.088 214.459C658.001 208.397 657.549 203.989 659.359 201.233H651.72L651.888 201.682C653.041 201.572 653.378 202.632 653.378 202.632C653.714 203.911 652.369 203.874 652.321 204.13C652.273 204.386 652.657 204.495 652.753 204.824C652.849 205.153 653.089 208.698 653.474 210.05C653.858 211.402 654.819 216.336 655.395 217.688C655.972 219.04 657.605 221.014 657.605 221.014L656.788 220.831L656.404 221.123L655.732 220.758L655.54 221.123L655.011 220.831L654.819 221.16C654.435 220.758 653.329 219.04 653.329 219.04L654.05 221.16L653.137 221.087L652.417 219.077L652.657 221.306C652.657 221.306 652.369 220.612 651.792 218.857C651.216 217.103 650.351 214.216 650.351 214.216C650.687 217.907 648.093 221.233 648.093 221.233C648.093 221.233 649.63 215.898 649.774 214.984C649.919 214.07 649.967 213.083 649.774 211.658C649.582 210.233 649.774 209.1 649.919 207.784C650.063 206.469 649.678 205.665 649.678 205.665C649.678 205.336 650.688 204.13 650.688 204.13C650.159 204.02 649.246 203.472 649.582 202.522C649.919 201.572 651.408 201.754 651.408 201.754L651.454 201.233H651.21L650.666 200.82C650.666 200.82 650.033 200.269 650.485 199.58C650.938 198.891 651.572 198.408 651.572 197.582C651.572 196.756 651.753 196.342 651.753 195.998C651.753 195.653 652.749 194.414 652.931 193.931C653.112 193.449 659.813 177.261 659.813 177.261C659.813 177.261 699.569 178.57 705.455 180.499L697.577 199.029L698.12 199.442L696.852 201.302C696.852 201.302 699.297 202.955 699.931 205.228C699.931 205.228 701.742 207.846 701.108 211.979C700.475 216.112 700.746 215.836 701.742 217.42C701.742 217.42 700.203 217.558 700.022 214.183C700.022 214.183 699.569 217.834 701.018 220.383L702.285 222.518C702.285 222.518 704.097 219.005 704.73 218.247C705.364 217.489 705.817 216.938 706.36 216.456C706.904 215.974 709.802 212.047 710.345 211.427C710.889 210.808 713.696 208.466 714.058 207.708C714.42 206.95 717.137 204.608 717.227 203.988C717.318 203.368 719.039 200.75 719.22 200.268C719.401 199.786 724.019 193.655 725.921 191.933C727.823 190.211 729.453 188.971 729.453 188.971C729.453 188.971 735.701 176.847 736.517 174.643C737.332 172.439 739.958 165.964 738.599 163.966C737.241 161.968 735.883 160.659 735.158 159.902C734.434 159.144 733.709 158.317 733.347 157.766C732.985 157.215 732.985 154.873 732.351 154.46C731.717 154.046 717.771 148.605 717.771 148.605L717.499 148.949L714.239 147.571V147.089L691.78 138.616C691.78 138.616 691.147 135.585 694.406 134.759L714.42 141.854L718.224 143.576L718.586 142.749L716.775 142.542C716.775 142.542 714.511 141.853 714.511 141.234C714.511 140.614 713.786 139.098 713.786 139.098C713.786 139.098 715.688 138.823 716.141 139.649C716.594 140.476 718.043 141.44 719.039 141.854C720.035 142.267 721.937 142.267 722.661 142.405C723.386 142.543 725.922 143.162 726.103 143.92C726.284 144.678 726.194 145.298 726.194 145.298L724.926 145.78L721.484 144.334C721.484 144.334 720.579 142.612 720.217 143.025C719.854 143.438 719.945 144.058 719.945 144.058L727.824 146.952L733.167 148.881C733.167 148.881 734.616 147.158 735.974 147.985C737.332 148.811 737.419 149.11 736.108 150.028L737.45 150.559C737.45 150.559 737.289 149.212 739.006 148.926C740.723 148.64 741.474 149.334 741.743 149.865C741.743 149.865 743.568 149.906 744.426 150.437C745.285 150.967 744.855 151.498 744.855 151.498C744.855 151.498 746.841 151.416 747.217 151.947C747.592 152.477 747.646 153.58 747.7 153.988C747.753 154.396 749.041 156.764 749.739 158.805C750.437 160.846 749.954 163.581 749.471 165.132C748.988 166.683 747.861 168.847 747.592 170.439C747.324 172.031 745.5 177.827 745.5 177.827C745.5 177.827 744.694 180.562 744.48 181.297C744.265 182.032 742.763 186.563 742.602 186.889C742.44 187.216 741.529 189.583 741.26 190.033C740.992 190.481 740.348 191.829 740.401 191.992C740.455 192.155 740.401 194.237 740.133 194.931C739.865 195.625 739.757 198.401 739.865 199.625C739.972 200.85 739.596 207.136 739.542 207.953C739.489 208.769 740.079 215.708 739.811 217.219C739.542 218.729 738.899 221.954 738.254 223.301C737.61 224.648 736 227.832 734.766 229.098C733.531 230.363 732.297 232.853 731.975 233.629C731.654 234.405 731.707 235.915 731.868 236.65C732.029 237.384 732.19 244.161 732.297 246.487C732.405 248.814 732.619 255.876 733.263 259.632C733.907 263.387 735.141 270.082 735.517 271.429C735.893 272.776 735.786 273.47 735.41 275.143C735.034 276.817 733.371 278.042 733.263 277.919C733.156 277.797 727.843 276.654 727.253 276.654C726.662 276.654 724.838 277.062 722.369 276.531C719.901 276.001 716.949 274.817 715.714 274.286C714.48 273.756 713.031 273.633 712.656 272.612C712.28 271.592 711.421 270.612 710.777 270.49C710.133 270.368 710.24 272.041 710.187 272.286C710.133 272.531 708.953 282.205 708.577 285.389C708.201 288.573 708.362 299.309 708.416 303.432C708.47 307.555 709.65 321.312 708.255 329.027C706.86 336.742 704.284 341.028 704.23 342.457C704.216 342.847 704.267 343.781 704.336 344.984H623.875C625.229 338.684 627.195 329.413 627.665 326.397Z" fill="#D5AFF1"/>
<path d="M191.374 184.673C191.322 184.666 191.286 184.66 191.286 184.66C191.313 184.67 191.343 184.673 191.374 184.673Z" fill="#E7E7E8"/>
<path d="M131.937 308.594C132.081 306.526 132.71 300.518 132.882 297.078C133.054 293.639 133.454 288.719 133.426 287.717C133.397 286.716 133.34 286.498 133.683 286.498C134.027 286.498 134.742 286.651 134.942 287.412C135.143 288.174 135.543 290.068 136.517 291.091C137.49 292.114 138.177 292.571 138.863 293.464C139.55 294.357 140.466 295.358 140.752 295.967C141.038 296.577 141.181 297.295 141.553 297.818C141.925 298.34 142.898 299.516 143.185 299.973C143.471 300.43 143.442 301.257 144.043 301.431C144.644 301.605 146.962 301.257 148.536 300.778C150.11 300.299 153.974 299.167 155.491 298.449C157.008 297.731 160.585 296.316 162.188 295.336C163.791 294.356 168.341 291.222 169.6 290.068C170.86 288.914 174.923 284.843 176.612 283.885C178.301 282.927 183.481 278.029 184.597 275.678C185.713 273.327 188.632 266.121 189.376 265.033C190.12 263.944 191.981 259.59 192.123 258.567C192.267 257.544 195.071 252.145 195.615 251.274C196.159 250.403 197.274 247.486 197.446 246.942C197.618 246.398 198.248 242.806 198.191 241.696C198.133 240.585 198.248 239.41 198.162 239.105C198.076 238.8 196.988 235.97 196.331 233.902C195.673 231.834 193.497 225.26 193.641 225.064C193.784 224.868 202.57 217.88 202.541 217.814C202.513 217.749 203.371 211.784 203.486 211.371C203.6 210.957 207.292 205.319 207.492 204.927C207.693 204.535 209.868 201.661 209.868 201.378C209.868 201.095 209.438 200.616 209.438 200.529C209.438 200.442 212.214 194.368 215.305 193.606C218.396 192.844 219.083 190.95 220.199 189.992C221.315 189.035 223.862 185.508 224.692 184.724C225.522 183.94 226.209 182.983 227.726 181.894C229.243 180.806 233.307 178.062 233.135 177.583C232.963 177.104 232.448 176.843 231.59 177.235C230.731 177.627 227.268 179.913 226.123 180.566C224.979 181.219 224.12 181.589 223.834 181.502C223.547 181.415 222.632 180.609 223.118 179.869C223.605 179.129 226.667 175.385 227.554 174.383C228.441 173.382 230.702 170.791 230.559 170.008C230.416 169.224 229.386 169.05 228.584 169.768C227.783 170.487 225.15 173.752 224.234 174.666C223.318 175.581 221.544 177.453 221.315 177.801C221.086 178.15 221.258 178.368 220.914 178.302C220.571 178.237 218.768 178.389 219.483 177.127C220.199 175.864 222.546 173.208 223.204 172.272C223.862 171.336 227.153 167.962 227.01 167.178C226.867 166.394 225.579 166.024 224.721 166.721C223.862 167.417 219.856 171.771 219.255 172.468C218.654 173.164 216.994 176.147 216.507 176.517C216.021 176.887 214.447 176.952 214.762 176.19C215.077 175.428 215.506 174.71 215.964 174.079C216.421 173.448 217.223 172.25 217.91 171.64C218.597 171.031 220.6 169.268 220.371 168.658C220.142 168.049 219.398 167.765 218.94 168.049C218.482 168.332 215.992 170.008 215.506 170.4C215.019 170.792 213.703 172.163 213.445 172.49C213.188 172.816 212.844 173.752 212.529 174.449C212.214 175.146 211.098 177.17 210.755 177.736C210.411 178.302 209.381 179.805 208.98 179.783C208.58 179.761 208.351 179.413 208.293 179.152C208.236 178.89 207.922 176.278 206.176 175.059C204.429 173.84 203.228 173.013 202.455 173.644C201.682 174.275 202.369 174.493 202.827 174.994C203.285 175.494 204.029 176.126 204.172 176.648C204.315 177.171 204.143 178.129 204.372 178.455C204.601 178.782 204.715 179.413 204.859 180.11C205.002 180.806 204.83 182.308 204.716 183.048C204.601 183.789 204.344 184.812 204.487 185.922C204.63 187.032 204.687 189.275 204.716 189.819C204.745 190.363 204.373 190.298 204.115 190.712C203.857 191.125 201.51 195.262 200.995 195.806C200.48 196.35 200.165 196.524 200.165 196.524C200.165 196.524 199.879 196.285 199.278 196.938C198.677 197.591 192.696 204.448 192.352 205.036C192.009 205.624 190.979 205.406 190.091 206.495C189.204 207.583 188.489 208.171 188.088 208.52C187.687 208.868 184.282 210.936 183.824 211.458C183.366 211.981 182.422 212.895 182.393 212.982C182.364 213.069 173.406 215.399 172.433 215.965C171.46 216.53 168.57 218.947 168.341 218.991C168.112 219.034 167.768 218.142 166.767 218.25C165.765 218.359 165.307 218.817 165.192 219.1C165.078 219.382 164.706 219.709 164.505 219.665C164.305 219.622 163.532 218.86 163.275 218.903C163.275 218.903 162.33 218.903 161.472 219.186C160.613 219.469 157.522 217.01 156.492 217.162C155.462 217.314 153.516 219.339 152.657 219.622C151.799 219.905 149.709 219.578 148.965 219.992C148.221 220.406 147.191 221.102 146.761 220.95C146.332 220.797 145.273 219.36 144.643 219.034C144.014 218.707 143.356 218.533 141.953 218.838C140.551 219.142 138.204 219.97 137.861 219.817C137.517 219.665 136.716 218.489 136.286 218.533C135.857 218.576 134.684 219.687 133.939 220.013C133.196 220.339 131.907 220.057 131.306 219.86C130.705 219.665 129.933 219.425 129.217 219.556C128.501 219.686 124.009 219.251 122.234 219.033C120.46 218.816 119.773 218.685 119.801 218.337C119.83 217.988 119.658 217.793 119.029 217.771C118.399 217.749 115.051 217.226 114.478 217.27C113.906 217.314 113.591 217.596 112.761 217.401C111.931 217.205 110.443 217.009 110.07 216.748C109.699 216.487 109.327 216.421 109.498 216.073C109.67 215.725 110.357 214.135 110.471 213.831C110.586 213.526 110.614 212.96 110.3 212.612C109.985 212.263 110.414 211.719 110.643 211.327C110.872 210.935 112.246 208.105 112.818 207.735C113.391 207.365 117.741 203.903 118.685 202.205C118.685 202.205 119.315 202.967 119.973 202.793C120.631 202.619 121.089 201.509 121.375 201.182C121.661 200.856 121.747 200.638 121.947 200.246C122.147 199.854 122.319 199.375 122.634 198.875C122.949 198.374 123.207 197.46 123.436 197.155C123.665 196.85 123.779 196.85 123.865 196.458C123.951 196.066 124.237 195.675 123.979 195.413C123.722 195.152 123.207 195.087 123.178 194.826C123.15 194.565 123.665 193.433 123.808 193.345C123.951 193.258 124.151 192.932 124.151 192.779C124.151 192.627 124.094 192.214 124.266 192.148C124.438 192.083 124.495 191.713 124.495 191.626C124.495 191.538 124.323 191.19 124.581 191.103C124.838 191.016 124.809 190.972 124.809 190.646C124.809 190.319 125.096 189.993 125.067 189.862C125.038 189.731 125.21 189.361 125.296 189.253C125.35 189.184 131.077 189.332 135.993 189.586C135.366 191.803 134.611 194.3 134.353 195.608C134.096 196.911 135.298 197.765 136.434 198.271C136.404 198.367 136.383 198.465 136.383 198.566C136.383 199.256 137.119 199.816 138.025 199.816C138.154 199.816 138.278 199.802 138.398 199.781C138.336 200.457 138.642 201.191 138.642 201.191C140.384 202.041 139.983 202.925 141.144 205.373C142.306 207.82 139.625 210.506 139.625 210.506C142.798 210.064 143.2 205.849 143.2 205.849C144.362 207.412 143.111 209.248 143.111 209.248C144.898 208.364 144.228 205.067 144.228 205.067C145.211 206.902 148.295 206.188 148.295 206.188C146.15 205.543 144.719 203.469 144.719 203.469C146.999 205.407 148.697 204.727 148.697 204.727C147.088 204.795 146.239 204.115 145.077 203.197C143.915 202.279 143.066 200.817 142.351 199.695C141.636 198.573 140.295 198.709 140.295 198.709C140.048 198.674 139.842 198.671 139.652 198.681C139.657 198.643 139.668 198.606 139.668 198.566C139.668 197.877 138.933 197.317 138.025 197.317C137.444 197.317 136.936 197.548 136.644 197.895C134.935 197.39 134.031 196.597 136.146 190.508C136.253 190.199 136.34 189.907 136.434 189.609C139.139 189.755 141.532 189.932 142.496 190.123C142.496 190.123 143.669 190.754 143.927 190.645C144.184 190.536 143.87 189.535 143.498 188.773C143.126 188.011 131.106 167.613 129.274 165.828C129.274 165.828 117.225 162.671 85.6868 163.194C85.6868 163.194 88.2053 168.506 89.8077 171.031C91.4104 173.556 93.4138 177.083 93.4138 177.083C93.4138 177.083 94.616 179.129 94.4441 179.216C94.2723 179.303 93.1847 179.913 92.7841 180.043C92.3835 180.174 91.9829 180.479 92.2116 180.435C92.4403 180.392 91.7537 180.827 91.7537 180.827L92.4981 180.914C92.4981 180.914 91.7974 181.827 91.4259 181.839C91.5832 181.862 91.9622 181.916 92.0975 181.916C92.2693 181.916 91.6396 182.569 91.4677 182.569C91.2959 182.569 90.9526 183.265 90.9526 183.265C90.9526 183.265 91.0667 184.267 90.838 184.267C90.6093 184.267 90.3801 184.789 90.3801 184.789C90.3801 184.789 90.3228 185.399 90.2087 185.704C90.0941 186.008 90.0941 186.4 89.9795 186.661C89.865 186.922 90.0368 187.097 89.9223 187.358C89.8077 187.619 90.151 187.837 90.0941 188.142C90.0368 188.446 90.4947 188.969 90.4947 188.969C90.4947 188.969 88.4913 188.49 87.6902 189.448C86.889 190.406 86.8317 191.538 86.7744 192.017C86.7171 192.496 86.8317 196.109 86.9463 196.371C87.0609 196.632 87.7475 197.111 88.2058 197.198C88.6636 197.285 89.4648 196.632 89.8086 196.85C90.1518 197.067 90.3237 197.503 90.2091 197.938C90.0946 198.374 89.0642 202.945 88.9501 204.251C88.9501 204.251 87.8625 205.166 86.8894 205.95C85.9164 206.733 84.199 208.823 83.226 209.041C82.253 209.258 81.3372 209.084 80.1923 208.17C79.0474 207.255 76.9299 206.385 75.499 206.123C74.0681 205.862 69.6035 204.077 68.4586 203.424C67.3137 202.771 64.3373 201.726 64.3946 201.334C64.4519 200.942 64.5664 200.463 64.5091 200.159C64.4519 199.854 62.162 199.593 61.3036 199.593C60.4451 199.593 60.6738 199.07 59.9295 199.027C59.1856 198.983 58.7846 199.331 58.2695 199.027C57.7543 198.722 57.697 197.938 57.0104 197.546C56.3234 197.155 54.7779 196.414 54.5492 196.589C54.32 196.763 53.5761 197.155 52.7172 197.329C51.8588 197.503 51.2863 197.285 50.8857 197.111C50.4852 196.937 49.7413 196.763 49.3403 196.676C48.9397 196.589 48.3672 196.981 47.7948 196.545C47.2223 196.11 45.2762 193.41 44.5319 192.931C43.788 192.453 43.3297 191.756 42.128 191.582C40.9258 191.408 40.5252 191.103 40.2965 190.58C40.0673 190.058 38.5796 187.445 37.8352 186.88C37.0914 186.313 36.7476 185.748 35.8892 185.051C35.0307 184.354 34.401 184.093 34.115 183.44C33.8285 182.787 33.6571 181.437 33.4852 181.132C33.3133 180.828 31.1381 177.083 30.2224 176.3C29.3066 175.516 28.6196 174.602 27.933 173.948C27.246 173.295 26.6735 172.425 26.7312 172.076C26.7885 171.728 24.8993 165.894 24.6706 164.849C24.4414 163.804 22.0948 162.062 22.0948 161.366C22.0948 160.669 21.8656 154.312 21.9229 153.746C21.9802 153.18 21.6365 151.134 21.751 150.96C21.8656 150.786 20.9499 149.087 20.9499 149.087C20.9499 149.087 21.465 141.468 21.8083 140.945C22.1516 140.423 23.2965 138.42 23.5825 138.115C23.8685 137.811 24.3269 136.679 24.5556 135.982C24.7843 135.285 25.6432 134.153 25.9292 133.761C26.2156 133.369 26.2725 132.934 26.1579 132.673C26.0438 132.412 25.414 131.018 25.7 131.018C25.986 131.018 41.3837 129.755 49.6258 129.407C57.8684 129.059 69.6022 128.623 69.6022 128.623L69.7167 127.97L70.4606 127.883C70.4606 127.883 72.0061 123.921 69.6022 122.92L39.1511 124.487C39.1511 124.487 38.5787 123.921 39.3798 123.791C40.181 123.66 43.3866 122.093 43.3866 121.57C43.3866 121.048 42.5281 120.482 42.5281 120.482L40.5247 120.612C40.5247 120.612 36.9759 121.962 36.3466 122.746C35.7169 123.529 36.2893 124.182 36.2893 124.313C36.2893 124.444 35.3736 124.618 35.3736 124.618L23.1242 125.097C23.1242 125.097 21.1781 124.096 21.0063 123.573C20.8344 123.05 19.5754 120.917 18.1445 120.874C16.7135 120.83 16.0838 121.178 16.9996 122.397C17.9153 123.617 18.6019 124.008 18.6019 124.008C18.6019 124.008 18.4878 124.923 18.7165 125.315H16.9996C16.9996 125.315 16.5417 121.875 15.2826 120.743C14.0236 119.611 12.7593 118.599 11.3592 118.778C11.3592 118.778 9.9631 119.153 10.6202 119.84C11.2772 120.528 12.6733 121.965 12.7557 122.839C12.8377 123.714 13.4948 125.588 13.2484 125.651C13.0021 125.713 11.3592 125.838 11.1129 125.838C10.8665 125.838 9.79873 122.902 7.82753 123.339C5.85634 123.777 6.26706 124.776 6.84172 126.088L5.19928 126.026C5.19928 126.026 5.61 124.651 5.19928 124.339C4.78855 124.027 2.89977 124.651 2.24271 125.588C1.58564 126.525 1.91395 127.838 2.24271 128.775C2.57102 129.712 3.88559 130.774 3.88559 131.648C3.88559 132.523 3.80362 133.085 4.29631 133.71C4.789 134.335 4.95337 136.396 4.8714 137.083C4.78944 137.771 5.52847 139.645 6.51428 140.52C7.5001 141.394 8.3211 142.644 8.3211 143.956C8.3211 145.268 8.3211 146.455 8.48504 147.33C8.64941 148.204 8.56701 149.829 8.56701 149.829C8.56701 149.829 7.41725 150.203 7.33484 150.578C7.25288 150.953 7.00653 161.699 7.00653 161.699C7.00653 161.699 5.44606 164.885 5.6924 166.322C5.93875 167.759 5.44606 170.508 5.93875 171.008C6.43144 171.507 6.43144 171.695 6.26706 172.382C6.10268 173.069 6.43144 173.944 6.43144 174.381C6.43144 174.819 6.10312 175.881 5.61044 176.818C5.11775 177.755 5.19972 182.378 5.19972 182.628C5.19972 182.878 7.99235 184.69 9.06013 185.877C10.1279 187.064 9.63479 187.876 9.88157 188.376C10.1279 188.876 11.6884 190.375 11.6884 190.375C11.6884 190.375 12.6738 191.312 12.6738 192.374C12.6738 193.436 13.3308 194.499 13.6596 194.936C13.9879 195.373 15.0557 196.435 15.2201 197.435C15.3844 198.434 15.8771 198.997 16.3698 200.683C16.8625 202.37 17.5196 203.682 18.341 204.369C19.1624 205.056 19.4088 206.119 19.8195 207.306C20.2302 208.493 21.9551 211.929 23.0229 213.616C24.0906 215.303 25.6511 216.865 27.1296 217.677C28.6081 218.489 29.1832 218.239 30.4149 217.739C31.6467 217.239 31.7291 218.489 31.6467 219.426C31.5647 220.363 31.9754 222.3 32.0574 222.487C32.1394 222.675 33.6998 223.112 33.3715 223.549C33.0432 223.987 31.3179 225.674 30.9076 226.236C30.4969 226.798 30.4149 227.548 31.4003 228.672C32.3861 229.797 33.1252 230.859 33.2076 231.484C33.2895 232.108 34.0286 232.921 34.0286 233.17C34.0286 233.42 32.3037 235.482 32.5501 236.669C32.7964 237.856 33.3715 239.293 34.1106 240.168C34.8496 241.042 33.9462 241.355 33.8642 241.917C33.7822 242.479 33.7822 243.229 33.3715 244.229C32.9608 245.228 33.5359 246.103 33.5359 246.728C33.5359 247.353 33.3715 247.79 33.2896 248.477C33.2076 249.164 33.2895 249.727 33.9466 250.414C34.6037 251.101 35.0964 251.726 35.1788 252.288C35.2607 252.85 35.3431 253.1 35.8358 253.537C36.3285 253.975 37.3963 255.037 37.3963 255.037C37.3963 255.037 37.807 256.036 36.4105 257.036C35.0144 258.035 36.1642 259.285 36.3285 260.284C36.4929 261.284 36.2466 262.159 36.0822 263.096C35.9178 264.033 35.5895 267.594 35.1788 269.843C34.7681 272.092 33.8646 279.964 33.2896 283.275C32.7149 286.587 30.333 292.459 29.4296 294.521C28.62 296.369 25.1712 336.247 22.9272 345.182H130.806C131.316 342.679 131.854 309.798 131.937 308.594ZM40.9844 121.078C40.9844 121.078 39.4482 122.419 38.3323 122.788C38.3323 122.788 39.5288 121.434 40.9844 121.078Z" fill="#D5AFF1"/>
<path d="M370.398 253.928C370.374 253.99 370.362 254.035 370.373 254.059C370.373 254.059 370.383 254.011 370.398 253.928Z" fill="#B083D2"/>
<path d="M366.946 246.95C366.676 247.588 366.477 248.211 366.477 248.665C366.477 248.665 366.658 247.939 366.946 246.95Z" fill="#B083D2"/>
<path d="M389.004 334.686C390.152 332.86 390.569 332.86 391.404 330.876C392.238 328.892 395.264 317.304 396.516 313.495C397.768 309.685 398.812 309.368 398.707 307.86C398.603 306.352 396.934 304.606 397.038 303.892C397.142 303.177 397.768 303.019 397.351 302.305C396.934 301.59 394.221 295.162 394.638 294.447C395.055 293.733 395.577 293.336 395.89 292.543C396.203 291.749 393.177 286.908 392.238 285.717C391.299 284.526 389.63 282.146 389.525 281.59C389.421 281.034 389.525 280.717 389.003 280.082C388.482 279.447 387.543 278.574 387.647 277.859C387.751 277.145 387.125 274.843 387.021 274.288C386.916 273.732 388.168 271.034 389.003 270.32C389.838 269.605 390.568 267.463 391.09 266.986C391.611 266.51 391.925 265.716 391.611 265.161C391.298 264.606 391.611 264.526 391.611 264.209C391.611 263.891 391.194 262.701 391.194 262.701C391.194 262.701 391.194 262.066 391.09 261.828C390.985 261.59 390.046 260.716 389.629 260.558C389.211 260.399 386.186 258.494 386.186 258.494C386.186 258.494 383.264 254.923 382.221 254.923C381.178 254.923 380.551 254.606 380.551 254.606L380.239 250.637C380.239 250.637 376.9 246.986 373.039 251.431L374.395 256.511C374.395 256.511 372.83 254.685 371.892 255.241C370.952 255.796 371.266 256.828 371.266 257.86C371.266 258.892 370.848 259.606 371.37 260.717C371.892 261.828 372.205 262.066 372.205 263.256C372.205 264.447 372.413 265.161 372.727 265.796C373.04 266.431 372.309 267.463 373.04 268.812C373.77 270.161 372.831 270.241 374.292 271.511C375.752 272.78 376.065 273.098 377.108 275.082C378.152 277.066 378.778 277.939 378.465 279.368C378.151 280.796 377.213 282.146 376.274 281.828C375.335 281.511 372.204 278.892 371.265 277.939C370.326 276.987 370.848 277.066 369.804 276.352C368.761 275.638 367.613 274.923 367.822 273.574C368.031 272.225 368.448 272.622 368.031 271.67C367.613 270.717 365.422 270.003 364.275 268.257C363.127 266.511 363.648 265.479 363.648 265.479C363.648 265.479 364.9 268.178 366.987 269.606C366.987 269.606 363.753 266.193 364.066 263.416C364.066 263.416 366.153 264.13 367.927 268.892C367.927 268.892 365.84 262.94 364.796 260.876C363.753 258.813 365.422 252.305 365.736 249.845C366.048 247.384 365.736 244.289 365.005 241.987C364.275 239.686 363.44 237.463 362.709 236.114C361.979 234.765 361.04 233.892 361.04 232.939C361.04 231.987 360.727 231.749 361.249 230.955C361.771 230.162 363.753 224.209 364.17 223.415C364.17 223.415 365.228 220.293 365.803 220.452C366.377 220.611 370.606 220.968 370.971 220.889C371.053 220.871 371.683 220.881 372.62 220.908C372.431 223.762 372.008 229.583 372.008 229.583C370.918 229.583 370.372 230.117 370.372 230.769C370.372 231.421 370.917 231.954 370.917 231.954C370.917 231.954 370.839 232.31 370.528 232.547C370.216 232.784 369.982 234.325 369.982 235.332C369.982 236.34 369.671 237.347 369.437 238.651C369.203 239.955 368.58 242.563 368.58 242.563C367.948 243.73 367.343 245.591 366.946 246.952C367.522 245.591 368.424 244.163 368.424 244.163C367.957 245.881 368.19 253.408 368.19 253.408C368.424 249.556 369.437 244.992 369.437 244.992C369.515 246.355 369.281 254.534 369.281 254.534C369.749 249.674 371.073 245.881 371.073 245.881C371.646 247.35 370.576 253.011 370.398 253.93C370.555 253.537 371.344 252.359 371.586 250.174C371.865 247.652 372.476 242.681 372.476 242.681C372.787 243.688 372.865 249.497 372.865 249.497C372.865 249.497 373.333 246.415 373.333 244.281C373.333 242.148 372.632 238.414 372.943 236.754C373.255 235.095 373.177 233.139 373.021 232.784C372.866 232.428 372.71 232.191 372.71 232.191C372.71 232.191 374.035 232.25 374.268 231.124C374.502 229.998 372.632 229.524 372.632 229.524C372.632 229.524 372.632 228.872 372.632 228.161C372.632 227.45 372.71 226.739 372.943 225.138C373.083 224.181 373.195 222.293 373.262 220.928C376.731 221.041 382.973 221.318 383.658 221.405C384.598 221.524 384.755 221.524 385.068 221.882C385.381 222.239 385.747 222.398 385.747 222.398C385.747 222.398 386.06 221.723 385.799 221.445C385.537 221.167 379.638 219.142 375.409 217.593C371.18 216.044 361.417 211.834 343.979 208.419C343.979 208.419 315.108 206.155 312.654 205.639L311.192 206.671C311.192 206.671 314.377 207.307 317.04 208.141C319.702 208.975 325.55 210.365 326.803 211.08C328.056 211.795 328.839 212.271 328.421 213.105C328.003 213.939 325.759 220.611 325.393 221.365C325.028 222.12 324.767 222.239 324.662 222.596C324.558 222.954 324.192 224.225 323.775 224.582C323.357 224.94 322.417 225.655 321.425 226.091C320.433 226.528 314.847 231.691 313.437 234.511C312.028 237.33 310.357 241.818 309.992 241.778C309.626 241.738 307.381 240.587 307.329 240.269C307.277 239.951 308.269 238.68 308.791 237.886C309.313 237.092 309.104 236.973 309 236.059C308.895 235.146 309.418 234.947 309.104 234.193C308.791 233.438 308.217 232.207 307.381 232.128C306.546 232.048 306.181 231.929 306.128 231.294C306.076 230.658 304.823 227.918 302.943 226.965C301.064 226.012 300.855 223.43 300.646 222.517C300.438 221.604 299.445 219.419 298.767 218.585C298.088 217.751 296.73 216.917 296.678 215.805C296.626 214.693 296.469 213.74 295.895 213.224C295.321 212.708 293.598 211 293.546 210.484C293.493 209.968 293.963 208.419 293.441 207.585C292.919 206.751 292.71 205.996 292.188 205.242C291.666 204.487 291.458 204.249 291.249 203.375C291.04 202.502 291.249 199.365 291.092 197.935C290.936 196.505 289.317 192.573 288.848 191.303C288.378 190.032 287.333 185.941 286.655 184.591C285.976 183.241 285.141 176.331 285.089 175.298C285.037 174.266 283.575 167.872 283.627 166.125C283.679 164.377 283.522 162.233 284.253 161.835C284.984 161.438 287.96 160.048 289.735 158.301C291.51 156.554 293.285 155.521 293.912 154.648C294.539 153.774 293.39 152.225 292.189 150.517C290.988 148.81 289.474 146.943 289.474 146.943L287.96 147.142C287.96 147.142 287.542 147.261 287.386 147.062C287.229 146.864 286.707 144.759 285.35 144.799C283.993 144.838 284.201 146.387 284.097 146.626C283.993 146.864 282.949 147.221 282.531 147.857C282.531 147.857 281.8 148.055 281.695 147.857C281.591 147.658 281.069 146.904 280.181 147.221C279.294 147.539 279.395 148.178 278.405 148.811C277.101 148.73 275.901 149.605 275.692 150.954C275.483 152.304 276.214 153.891 275.901 154.605C275.588 155.32 273.71 156.589 272.98 157.78C272.25 158.97 271.519 160.796 272.458 162.304C273.397 163.812 273.501 164.764 273.501 167.463C273.501 170.161 273.188 182.145 272.979 185.479C272.77 188.812 272.04 191.987 272.666 194.844C273.293 197.701 274.545 201.908 275.379 203.812C276.214 205.717 276.527 207.066 276.527 207.066C276.527 207.066 273.606 207.701 272.771 208.654C271.937 209.606 270.893 210.638 270.789 212.622C270.684 214.606 270.371 215.638 270.058 216.749C269.746 217.86 268.702 218.098 268.598 220.241C268.493 222.384 267.658 229.368 267.658 229.368C267.658 229.368 272.771 235.083 274.545 236.432C276.319 237.781 277.78 240.559 279.032 242.384C280.284 244.21 280.284 245.638 280.91 246.67C281.536 247.702 280.493 247.305 280.493 248.257C280.493 249.21 280.493 248.892 280.91 249.527C281.327 250.162 280.493 250.956 280.91 252.067C281.327 253.178 281.432 253.416 282.162 254.131C282.892 254.845 284.875 255.003 284.04 255.956C283.205 256.908 280.701 257.702 280.388 259.686C280.075 261.67 279.241 261.67 279.971 262.702C280.701 263.734 282.371 263.575 281.014 265.48C279.658 267.384 278.301 268.654 278.197 270.162C278.093 271.67 278.823 275.559 280.493 279.766C282.162 283.972 281.014 319.449 281.536 322.703C282.058 325.957 282.267 328.179 281.953 330.084C281.64 331.988 279.971 333.417 279.658 336.036C279.345 338.655 279.553 339.131 279.345 340.481C279.137 341.83 277.362 343.417 277.571 344.766C277.582 344.836 277.592 344.911 277.601 344.986H385.641C387.234 339.37 387.94 336.378 389.004 334.686Z" fill="#B083D2"/>
<path d="M670.648 344.274C672.381 342.214 677.582 334.138 678.773 333.148C679.965 332.16 682.457 329.44 682.891 329.028C683.324 328.616 683.324 318.314 682.565 314.605C681.807 310.896 680.724 307.6 680.724 307.353C680.724 307.105 681.265 302.985 682.024 301.419C682.782 299.853 684.299 289.057 684.949 285.101C685.599 281.145 686.574 277.849 687.441 277.272C688.308 276.695 692.1 273.481 692.859 271.503C693.617 269.525 693.617 267.877 693.184 267.135C692.751 266.393 692.209 265.487 691.45 265.322C690.692 265.157 690.259 264.745 689.933 264.168C689.608 263.591 689.283 263.509 688.85 263.014C688.416 262.52 689.067 261.119 688.85 260.872C688.633 260.625 687.333 260.047 685.6 260.13L685.275 258.564C685.275 258.564 683.216 258.07 682.674 258.482C682.133 258.893 680.833 259.305 680.833 259.305C680.833 259.305 680.399 258.399 679.857 258.811C679.316 259.223 678.341 261.201 677.907 261.86C677.473 262.52 675.415 265.074 674.982 265.816C674.548 266.558 673.898 267.3 674.332 268.371C674.765 269.443 674.765 271.256 675.198 271.75C675.632 272.245 676.607 273.398 676.499 274.058C676.39 274.717 676.39 276.777 676.39 277.767C676.39 278.756 674.44 284.36 673.898 285.843C673.356 287.327 670.973 292.354 670.864 293.755C670.756 295.156 670.431 294.744 669.997 294.662C669.564 294.579 664.363 291.2 663.389 290.623C662.413 290.046 659.705 288.233 659.271 287.327C658.838 286.42 656.779 283.371 655.262 281.393C653.745 279.415 648.22 273.728 645.836 272.987C643.453 272.245 641.286 271.256 639.877 271.256C638.469 271.256 636.952 270.844 636.302 270.515C635.652 270.185 633.81 268.784 632.727 269.031C631.643 269.278 630.452 269.278 629.368 269.031C628.285 268.784 627.418 267.218 625.901 266.888C624.384 266.559 621.892 265.899 621.567 265.487C621.242 265.075 619.4 257.988 619.834 257.576C620.267 257.164 622.976 254.362 623.409 253.373C623.842 252.384 625.034 250.406 624.817 249.582C624.601 248.757 624.926 248.428 625.467 247.933C626.009 247.439 629.368 245.955 629.476 245.461C629.585 244.966 635.544 237.796 627.418 233.84C627.418 233.84 627.526 231.615 625.793 229.06C624.059 226.505 621.784 222.962 621.892 222.632C622.001 222.302 630.776 213.978 631.752 213.072C632.183 212.67 632.573 212.124 632.872 211.639C633.534 213.751 634.357 220.003 634.714 222.881C633.937 223 633.351 223.522 633.351 224.149C633.351 224.539 633.583 224.886 633.943 225.123C633.771 225.877 633.583 227.294 633.888 229.294C634.362 232.384 633.692 235.654 634.165 237.694C634.638 239.734 635.348 240.814 635.19 242.524C635.032 244.234 634.599 245.704 634.954 246.904C634.954 246.904 635.072 243.903 635.624 242.314C635.624 242.314 636.018 246.094 636.373 247.534C636.728 248.974 637.359 251.704 637.083 252.994C637.083 252.994 637.477 251.404 637.359 249.874C637.241 248.344 636.728 245.913 636.689 245.464C636.649 245.014 636.61 243.574 636.61 243.454C636.61 243.454 639.252 250.384 639.489 251.824C639.489 251.824 639.529 248.434 638.858 247.263C638.188 246.093 638.464 245.073 638.424 244.503C638.385 243.933 638.346 243.034 638.306 242.913C638.306 242.913 639.647 246.093 639.844 247.863C640.041 249.633 640.238 251.313 640.751 252.273C640.751 252.273 640.356 247.743 640.159 246.393C639.962 245.043 639.884 244.053 639.805 243.333C639.726 242.613 639.331 241.053 639.331 241.053C639.331 241.053 641.579 242.853 641.54 246.063C641.54 246.063 641.974 241.983 639.884 239.283C637.793 236.583 638.306 233.403 638.149 232.683C637.991 231.963 637.793 231.153 637.675 230.013C637.557 228.873 637.439 228.723 637.399 227.853C637.366 227.128 636.815 225.472 636.54 224.764C636.672 224.58 636.753 224.372 636.753 224.148C636.753 223.484 636.092 222.943 635.245 222.869C634.691 219.082 633.682 212.724 633.226 211.026C633.39 210.722 633.485 210.516 633.485 210.516L581.046 210.928C581.046 210.928 569.237 219.747 569.02 220.241C568.803 220.736 569.453 221.312 569.453 221.312L572.053 220.653C572.053 220.653 582.455 220.736 582.455 220.983C582.455 221.23 582.996 224.444 582.563 226.092C582.13 227.741 581.046 230.707 581.046 231.449C581.046 232.191 580.613 232.438 580.613 233.51C580.613 234.581 579.855 237.795 579.963 239.031C580.071 240.267 579.313 239.855 579.638 241.421C579.963 242.987 580.288 243.399 580.829 244.058C581.371 244.718 581.913 245.789 582.346 246.943C582.78 248.097 583.755 248.426 583.971 249.498C584.188 250.569 583.43 251.146 585.055 251.888C586.68 252.63 587.113 253.371 588.847 254.113C590.58 254.855 590.58 255.267 591.339 256.586C592.097 257.904 592.53 259.47 592.639 260.047C592.747 260.624 588.522 261.366 588.522 261.366C588.522 261.366 585.271 257.904 583.213 257.575C581.154 257.245 575.52 253.289 574.978 253.042C574.437 252.795 575.087 248.921 574.545 248.097C574.003 247.273 572.487 246.037 572.27 245.295C572.053 244.553 571.62 242.905 571.186 242.823C570.753 242.74 568.044 242.575 567.719 242.575C567.394 242.575 564.686 240.597 563.494 239.938C562.302 239.279 563.494 235.9 563.061 234.994C562.627 234.087 553.743 227.411 553.418 226.587C553.093 225.763 552.66 225.351 551.901 224.527C551.143 223.703 548.109 221.808 548.434 220.818C548.76 219.83 548.868 218.346 548.543 218.346C548.218 218.346 545.076 217.851 544.425 217.686C543.775 217.522 538.575 209.61 534.783 206.231C530.991 202.852 524.165 191.726 522.54 189.831C520.914 187.935 519.831 185.875 519.723 185.133C519.614 184.391 518.423 181.837 517.556 181.507C516.689 181.178 516.581 180.271 515.497 179.941C514.414 179.612 513.655 178.293 512.681 177.963C511.705 177.634 510.731 177.221 510.622 176.974C510.514 176.727 510.622 176.068 509.972 175.738C509.322 175.408 508.781 175.079 508.781 174.831C508.781 174.584 504.122 161.233 504.122 161.233C504.122 161.233 503.472 157.937 503.472 157.607C503.472 157.277 500.655 147.222 499.246 142.69C497.838 138.157 495.996 132.8 495.996 132.8C495.996 132.8 491.445 132.141 487.545 134.448L494.37 154.722L491.337 154.557L493.937 155.876C493.937 155.876 494.37 157.359 494.587 157.854C494.804 158.349 495.779 158.678 495.779 158.678C495.779 158.678 495.779 159.584 495.779 159.914C495.779 160.244 496.754 160.326 496.754 160.986C496.754 161.645 497.079 161.975 496.971 162.387C496.863 162.799 496.971 163.376 497.188 163.623C497.405 163.87 500.655 174.529 500.655 174.529C500.221 174.749 498.199 175.299 498.199 176.947C498.199 178.595 499.932 178.595 500.366 178.925C500.366 178.925 501.002 179.126 501.081 178.768L501.211 178.41C501.211 178.41 502.022 178.251 502.257 178.47C502.492 178.689 502.675 179.106 502.728 179.384C502.78 179.663 502.571 179.723 502.492 179.762C502.414 179.802 500.218 179.583 499.878 179.683C499.538 179.782 498.519 180.16 498.441 181.015C498.362 181.87 499.068 182.089 499.486 182.367C499.905 182.646 501.264 183.222 501.395 183.461C501.525 183.699 500.976 183.799 500.793 183.799C500.61 183.799 499.643 183.58 499.199 183.898C498.754 184.217 497.944 184.813 498.022 185.131C498.101 185.449 498.179 185.728 498.52 185.907C498.859 186.086 499.565 186.583 499.8 186.702C500.035 186.821 500.062 186.981 499.957 187.12C499.853 187.259 498.99 187.458 498.728 187.657C498.467 187.856 498.258 188.253 498.415 188.691C498.572 189.128 499.173 189.486 499.617 189.685C500.062 189.884 500.637 190.142 500.872 190.282C501.107 190.421 501.186 190.461 501.656 190.858C502.126 191.256 503.617 191.415 504.166 191.713C504.715 192.012 505.682 192.588 506.361 192.787C507.041 192.986 508.165 193.006 509.655 193.224C511.145 193.443 511.824 193.523 512.191 193.761C512.556 194 513.184 194.119 513.524 194.616C513.863 195.113 515.589 197.181 516.582 199.01C516.582 199.01 520.156 206.067 522.54 209.281C524.924 212.495 525.465 213.979 526.007 214.638C526.549 215.297 526.874 216.863 527.849 218.017C528.824 219.171 532.183 223.292 533.158 224.363C534.133 225.434 534.025 226.259 534.133 226.506C534.242 226.753 533.266 233.758 532.941 236.23C532.616 238.703 532.4 240.598 532.291 240.928C532.183 241.258 531.1 242.082 531.1 243.071C531.1 244.06 531.533 244.637 531.425 245.049C531.316 245.461 530.45 246.12 530.558 246.862C530.666 247.604 530.233 248.758 529.691 249.747C529.149 250.735 526.333 257.246 525.466 259.142C524.599 261.038 523.732 265.405 522.974 266.807C522.215 268.208 521.348 274.389 521.132 275.79C520.915 277.191 521.782 284.855 522.432 287.245C523.082 289.635 526.224 301.668 527.849 305.459C529.474 309.249 531.966 313.535 534.458 316.749C536.95 319.963 539.009 323.178 540.742 324.084C542.476 324.99 544.101 326.556 545.401 326.556C546.701 326.556 551.469 321.858 552.227 321.117C552.985 320.375 555.152 318.315 555.261 317.656C555.369 316.996 555.261 314.277 556.019 314.442C556.777 314.606 556.777 315.925 556.777 316.832C556.777 317.738 556.886 322.93 556.669 324.826C556.452 326.721 556.344 338.012 556.344 341.061C556.344 341.989 556.354 343.414 556.371 344.985H670.026C670.246 344.741 670.456 344.503 670.648 344.274Z" fill="#B083D2"/>
<path d="M508.732 340.461C508.949 339.637 510.575 329.994 510.032 326.862C509.491 323.73 506.782 315.654 506.349 312.44C505.916 309.226 504.399 300.407 503.64 298.512C502.882 296.616 500.065 283.76 498.873 280.298C497.681 276.837 492.047 262.332 488.58 259.283C488.58 259.283 489.339 255.409 489.122 254.008C488.905 252.607 489.014 242.965 489.014 240.328C489.014 237.69 488.905 233.652 489.014 232.416C489.122 231.18 490.205 227.966 490.314 226.894C490.422 225.823 491.397 221.043 491.722 220.054C492.047 219.065 493.13 215.768 493.13 214.367C493.13 212.966 493.347 198.379 493.889 197.472C494.43 196.566 495.406 194.753 495.839 194.917L506.24 204.477C506.24 204.477 508.515 206.29 510.791 204.725C510.791 204.725 514.257 202.664 510.574 199.78C506.89 196.895 501.039 190.961 501.039 190.961L499.848 189.89C499.848 189.89 500.281 187.912 499.739 187.171C499.198 186.429 498.223 185.769 497.897 185.605C497.572 185.44 498.006 184.616 497.247 184.121C496.489 183.627 496.164 183.627 495.73 183.38C495.297 183.132 494.864 182.226 494.214 181.978C493.564 181.731 493.13 181.566 492.48 181.237C491.83 180.907 491.613 180.66 491.071 180.825C490.53 180.99 489.88 181.319 489.555 181.319C489.23 181.319 487.496 179.671 487.496 179.671C487.496 179.671 487.929 178.682 487.388 178.435C486.846 178.187 486.196 178.517 486.196 178.517C486.196 178.517 484.029 176.292 483.162 176.127C482.296 175.962 480.02 175.88 478.937 178.105L478.287 178.847L481.754 182.061C481.754 182.061 480.888 185.11 480.779 185.687C480.671 186.264 481.863 187.747 482.404 188.654C482.946 189.56 484.355 191.95 484.571 192.363C484.788 192.775 484.896 193.352 484.68 194.341C484.463 195.33 484.355 198.462 484.138 199.862C483.921 201.264 482.621 207.774 481.971 210.906C481.321 214.038 480.021 217.417 479.588 221.208C479.154 224.999 478.721 226.812 478.721 227.636C478.721 228.46 477.854 230.356 477.746 231.757C477.637 233.158 475.904 236.454 475.47 238.268C475.037 240.081 474.17 246.179 473.953 247.91C473.737 249.641 473.845 250.63 473.845 250.63C473.845 250.63 468.536 252.525 468.428 252.772C468.319 253.019 468.102 254.668 468.102 254.668C468.102 254.668 465.177 256.234 464.527 256.564C463.877 256.893 463.119 257.47 463.01 257.882C462.902 258.295 462.902 259.119 462.902 259.119C462.902 259.119 462.469 259.613 462.143 259.778C461.818 259.943 460.952 262.25 460.952 262.25C460.952 262.25 459.76 263.569 460.735 264.229C461.71 264.888 462.36 266.619 462.36 266.619C462.36 266.619 460.627 268.02 460.518 267.525C460.41 267.031 460.627 266.372 460.843 265.712C460.843 265.712 460.518 264.064 459.977 263.652C459.435 263.24 458.677 262.992 459.327 262.415C459.977 261.838 460.952 261.179 460.627 260.52C460.301 259.86 460.518 259.613 461.06 258.954C461.601 258.295 462.36 257.141 462.035 256.317C461.71 255.493 461.601 254.916 461.927 254.421C462.252 253.927 462.36 253.927 461.927 253.102C461.493 252.278 461.06 251.042 461.385 250.96C461.71 250.877 461.927 250.795 461.493 249.971C461.06 249.147 460.41 248.323 460.735 247.828C461.06 247.334 460.627 246.427 459.977 245.933C459.327 245.438 459.11 244.944 458.46 244.037C457.81 243.131 459.001 243.131 458.243 243.048C457.485 242.966 457.376 242.966 457.051 242.801C456.726 242.636 455.426 242.224 455.643 241.894C455.86 241.565 455.751 237.362 455.751 237.362L468.625 232.149L468.644 232.943C467.817 233.081 467.198 233.64 467.198 234.309C467.198 234.643 467.357 234.945 467.613 235.186C467.352 235.723 467.049 236.679 467.166 238.142C467.359 240.574 467.521 243.62 467.101 245.487C466.681 247.355 466.423 248.141 466.778 249.222C466.778 249.222 466.778 247.379 467.198 246.274C467.198 246.274 466.713 248.337 467.553 250.425C467.553 250.425 467.65 251.408 467.585 252.121C467.585 252.121 467.875 251.187 467.908 249.836C467.94 248.485 468.069 247.183 468.069 246.937C468.069 246.937 468.199 249.05 468.36 250.327C468.522 251.605 468.263 252.391 468.263 252.637C468.263 252.637 468.522 251.089 468.554 250.082C468.586 249.074 468.812 248.46 468.812 248.46C468.812 248.46 469.006 250.106 469.329 250.917C469.329 250.917 469.587 251.629 469.458 251.949C469.458 251.949 469.845 251.089 469.619 250.205C469.393 249.32 469.458 248.337 469.458 248.337C469.458 248.337 470.388 249.731 470.563 250.375C470.482 249.986 470.217 248.764 469.975 248.19C469.684 247.502 469.846 246.397 469.846 246.397C469.846 246.397 470.815 248.067 471.041 249.542C471.041 249.542 470.976 247.06 470.395 245.93C469.814 244.8 470.427 243.056 470.363 242.147C470.298 241.238 470.557 240.722 470.46 239.641C470.363 238.56 470.524 238.511 470.492 237.676C470.46 236.841 470.75 236.595 470.653 235.981C470.615 235.74 470.547 235.448 470.477 235.174C470.725 234.935 470.879 234.638 470.879 234.31C470.879 233.621 470.224 233.052 469.363 232.935C469.349 232.627 469.338 232.261 469.328 231.865L475.903 229.203C475.903 229.203 457.701 221.868 453.476 220.632C449.25 219.396 439.716 215.192 439.174 214.945C439.174 214.945 403.637 228.543 400.603 229.862C400.603 229.862 400.169 230.439 400.82 230.604C401.47 230.769 417.505 237.197 419.022 237.774C420.539 238.351 421.297 238.845 421.297 238.845L421.514 242.472C421.514 242.472 420.322 243.955 420.214 245.109C420.105 246.262 420.539 248.323 421.298 248.735C421.298 248.735 419.889 249.559 420.214 250.136C420.539 250.713 420.647 251.043 421.405 252.279C422.164 253.515 422.489 255.41 423.139 256.317C423.789 257.224 424.439 257.965 424.764 257.883C425.09 257.8 426.281 258.295 426.281 258.295C426.281 258.295 426.281 259.696 427.148 261.262C428.015 262.828 430.29 265.218 431.699 265.96C433.107 266.701 435.708 268.267 435.708 268.514C435.708 268.762 435.274 271.481 435.274 271.481C435.274 271.481 432.457 271.151 431.373 271.316C430.29 271.481 428.014 269.75 427.148 269.586C426.281 269.421 424.114 268.679 424.006 268.102C423.898 267.525 425.848 266.124 425.74 265.383C425.631 264.641 415.23 256.977 414.905 256.317C414.58 255.658 415.122 254.669 415.013 254.339C414.905 254.01 412.196 251.867 411.438 251.867C410.68 251.867 406.779 249.559 406.237 249.312C405.696 249.064 404.287 249.559 404.071 249.312C403.854 249.064 403.745 248.57 403.204 248.405C402.662 248.24 401.254 248.405 401.254 248.405C401.254 248.405 393.778 241.235 392.478 238.68C391.178 236.125 387.819 230.192 386.302 228.708C384.785 227.225 383.16 224.588 382.51 223.434C381.86 222.28 375.143 213.791 375.793 212.473C376.443 211.154 378.826 208.846 379.259 208.105C379.693 207.363 379.801 207.693 379.693 206.704C379.584 205.715 378.826 204.973 378.826 204.396C378.826 203.819 379.151 202.995 377.309 202.665C375.467 202.336 374.384 201.347 373.95 201.512C373.517 201.677 373.192 201.759 373.192 202.006C373.192 202.253 372 201.677 371.242 202.336C370.483 202.995 370.916 202.665 370.483 202.995C370.05 203.325 368.533 202.912 367.883 203.572C367.233 204.231 367.774 204.808 367.341 204.808C366.908 204.808 366.257 204.726 365.607 205.055C364.957 205.385 365.397 206.269 365.069 206.775C365.069 206.775 363.484 206.574 362.999 207.813C362.515 209.052 362.78 209.956 362.78 210.927C362.78 211.898 362.868 213.138 363.704 213.74C364.541 214.343 366.346 215.281 367.27 216.587C368.195 217.893 371.189 224.357 372.906 227.873C374.623 231.389 375.899 234.571 376.648 235.408C377.396 236.245 379.686 239.761 381.491 241.67C383.296 243.579 384.837 245.455 385.233 246.024C385.63 246.593 386.73 248.301 387.391 249.909C388.051 251.516 389.372 255.367 390.693 257.008C392.013 258.649 393.731 262.099 393.907 262.4C394.083 262.701 393.422 263.806 393.246 265.012C393.07 266.218 391.177 271.643 391.133 273.15C391.089 274.657 389.019 285.139 388.799 286.646C388.799 286.646 385.218 301.397 383.377 307.331C381.535 313.265 379.043 325.215 378.609 334.445C378.26 341.887 378.474 343.543 378.968 344.985H487.141C487.025 343.196 486.955 342.109 486.955 342.109C486.955 342.109 487.93 342.769 488.58 343.51C489.016 344.007 489.839 344.538 490.661 344.985H506.366C507.36 343.343 508.577 341.052 508.732 340.461Z" fill="#B083D2"/>
<path d="M470.563 250.374C470.576 250.419 470.585 250.461 470.589 250.498C470.589 250.498 470.579 250.451 470.563 250.374Z" fill="#B083D2"/>
<path d="M130.927 195.496C130.965 195.382 130.962 195.248 130.926 195.095C130.936 195.345 130.927 195.496 130.927 195.496Z" fill="#B8BABB"/>
<path d="M181.557 212.414C181.574 212.44 181.629 212.467 181.705 212.493C181.588 212.364 181.5 212.327 181.557 212.414Z" fill="#B8BABB"/>
<path d="M265.242 344.808C267.409 342.83 271.743 334.424 273.043 332.281C274.343 330.139 278.027 327.831 278.027 325.358C278.027 322.886 280.41 319.589 280.844 318.106C281.277 316.623 290.378 308.216 292.762 304.92C295.145 301.623 298.829 295.36 299.913 290.25C300.649 286.781 301.273 271.935 300.167 264.738C300.344 263.669 299.925 263.063 299.974 262.76C300.04 262.359 298.722 261.259 298.722 261.259C298.722 261.259 298.818 258.38 298.62 256.979C298.421 255.577 297.859 252.799 297.628 251.923C297.396 251.047 297.396 251.047 297.396 251.047C297.396 251.047 296.899 247.217 296.965 246.817C297.031 246.416 296.963 244.864 297.489 244.263C298.015 243.662 300.578 239.756 300.775 239.205C300.972 238.654 301.958 237.853 301.958 237.202C301.957 236.551 301.33 234.824 300.606 234.023C299.881 233.222 298.662 231.196 298.662 231.196C298.662 231.196 303.228 223.208 304.017 222.306L310.962 223.329L314.943 222.852L310.138 222.153L311.519 221.552L310.431 218.724L307.6 218.375C307.6 218.375 319.006 203.875 319.695 201.297C319.695 201.297 313.965 196.443 311.926 197.796C311.878 197.828 311.843 197.85 311.801 197.879L298.484 216.903L296.443 216.303L296.082 216.879C296.082 216.879 292.825 218.157 292.661 218.833C292.497 219.509 294.145 221.861 294.145 221.861L294.408 222.863L291.254 228.421C291.254 228.421 289.708 228.397 289.182 228.998C288.656 229.599 288.656 229.599 288.656 229.599C288.656 229.599 287.008 227.247 285.331 228.024C283.653 228.801 283.556 230.378 284.182 231.454C284.808 232.53 284.249 233.006 283.822 233.983C283.395 234.959 283.462 235.86 283.462 235.86C283.462 235.86 282.541 236.261 282.311 236.687C282.081 237.112 280.864 237.689 280.437 239.316C280.011 240.943 281.131 242.595 281.494 243.321C281.857 244.046 281.857 244.046 281.857 244.046C281.857 244.046 281.692 244.071 280.903 244.973C280.114 245.875 280.153 251.857 279.661 253.885C279.169 255.913 277.462 260.47 277.594 260.97C277.707 261.4 277.583 266.172 277.545 267.522C274.851 267.84 272.332 267.773 271.308 267.34C269.358 266.516 259.823 259.429 257.223 259.264C254.623 259.099 250.289 257.78 248.122 257.78C245.955 257.78 243.355 256.956 241.405 255.638C239.455 254.319 235.121 253.66 232.521 253.001C229.921 252.341 223.203 252.671 221.036 251.847C218.869 251.023 218.652 251.352 218.002 250.858C217.352 250.363 214.752 251.517 214.318 249.869C213.885 248.221 214.101 245.679 213.473 245.201C212.844 244.723 211.588 245.153 211.462 244.962C211.337 244.771 211.902 240.852 212.342 239.609C212.782 238.366 214.541 236.073 214.73 234.878C214.73 234.878 215.484 235.642 216.112 235.69C216.74 235.738 217.494 235.021 218.248 234.4C219.002 233.779 220.824 231.819 220.95 230.911C221.076 230.003 222.206 227.948 221.704 227.231C221.202 226.514 220.887 225.654 219.505 225.845C218.122 226.036 218.311 225.797 218.311 225.797C218.311 225.797 219.254 224.363 219.442 223.981C219.63 223.598 219.882 223.646 219.945 223.121C220.008 222.595 219.882 222.213 220.07 221.974C220.259 221.735 220.133 222.26 220.761 222.26C220.761 222.26 220.258 221.687 220.384 220.874C220.51 220.062 220.636 219.297 220.51 219.153C220.384 219.01 220.949 218.819 221.201 218.723C221.452 218.628 221.766 218.389 221.766 218.389C221.766 218.389 221.138 218.58 220.824 218.102C220.51 217.624 221.452 217.959 221.578 217.768C221.703 217.577 221.327 217.099 221.327 217.099C221.327 217.099 221.327 217.624 220.636 217.433C219.945 217.242 220.636 217.242 220.384 216.764C220.133 216.286 220.761 215.999 220.447 215.665C220.133 215.33 220.195 214.661 219.819 214.279C219.442 213.896 219.253 213.705 219.253 213.705C219.253 213.705 220.447 214.518 220.824 214.231C220.824 214.231 219.379 213.896 219.065 212.893C218.75 211.889 217.934 212.606 217.62 212.51C217.305 212.415 218.89 212.186 218.311 211.746C218.248 211.698 217.368 212.08 216.551 211.746C215.734 211.411 216.551 211.172 216.363 210.838C216.174 210.503 215.672 209.69 215.42 209.595C215.169 209.499 216.425 209.643 216.614 209.499C216.803 209.356 214.917 209.451 214.038 209.117C213.159 208.782 213.975 208.304 213.787 207.54C213.598 206.775 213.096 206.249 213.033 206.106C212.97 205.963 212.97 205.963 212.97 205.963C212.97 205.963 213.661 207.587 212.907 208.018C212.153 208.448 212.467 207.158 211.839 206.823C211.211 206.488 211.085 206.919 210.96 206.106C210.96 206.106 210.547 206.312 210.912 206.934C210.54 206.426 209.812 205.491 209.389 205.198C208.698 204.72 208.824 204.051 207.881 204.099C206.938 204.147 206.813 203.669 206.059 203.239C205.305 202.809 204.676 202.617 204.802 202.091C204.927 201.566 205.493 200.801 205.493 200.801C205.493 200.801 203.294 201.327 204.048 203.382C204.048 203.382 202.54 201.47 203.859 200.514C203.859 200.514 202.037 200.849 202.414 201.948C202.414 201.948 201.974 200.562 201.095 200.227C201.095 200.227 201.723 201.9 201.283 201.9C200.844 201.9 200.718 200.562 200.718 200.371C200.718 200.18 200.404 201.47 200.215 201.661C200.027 201.852 199.273 201.709 199.21 201.47C199.147 201.231 198.833 202.474 198.582 202.57C198.33 202.665 198.142 201.69 198.142 200.801C198.142 200.61 196.759 201.279 197.011 202.856L195.503 200.801C195.503 200.801 195.063 202.665 196.006 203.287C196.006 203.287 194.372 203.095 193.492 202.856C193.492 202.856 193.932 203.717 194.56 203.86C195.189 204.004 193.304 204.673 192.927 204.625C192.549 204.577 192.487 205.724 191.921 205.724C191.356 205.724 190.414 206.154 190.414 206.154C190.414 206.154 190.665 206.441 190.288 206.68C189.911 206.919 188.718 207.158 189.157 206.823C189.597 206.488 189.2 205.474 190.331 205.188C190.331 205.188 188.718 204.816 187.712 207.492C187.712 207.492 186.674 206.657 187.993 205.892C187.993 205.892 185.325 205.485 185.702 209.786C185.702 209.786 184.32 209.738 184.885 208.113C185.513 207.301 185.513 207.301 185.513 207.301C185.513 207.301 183.503 208.257 183.88 209.595C184.257 210.933 185.011 210.933 185.011 210.933C185.011 210.933 182.437 212.135 182.311 210.797C182.186 209.458 181.909 209.601 181.909 209.601C181.909 209.601 181.115 211.172 182.309 211.793C183.503 212.414 184.068 212.653 183.88 212.749C183.717 212.832 182.192 212.664 181.703 212.493C181.842 212.647 182.024 212.933 182.058 213.323C182.12 214.039 181.681 214.661 181.492 215.521C181.303 216.381 180.173 217.098 180.612 218.532C181.052 219.966 181.429 221.017 181.429 221.399C181.429 221.782 180.801 222.068 181.24 222.499C181.68 222.929 181.303 222.929 181.618 223.693C181.932 224.458 181.932 224.458 181.932 224.697C181.932 224.936 180.864 225.031 180.549 225.414C180.235 225.796 179.482 227.23 180.11 228.138C180.738 229.046 180.361 230.719 180.801 231.579C181.24 232.439 181.68 232.582 181.869 233.156C182.058 233.73 182.309 234.781 183 234.829C183.691 234.877 184.257 234.877 184.257 234.877C184.257 234.877 184.257 236.071 185.136 237.027C186.016 237.983 187.272 239.417 187.272 239.751C187.272 240.086 187.649 243.766 187.649 243.909C187.649 244.053 186.644 244.292 186.644 244.292C186.644 244.292 185.702 246.681 186.015 247.733C186.33 248.784 185.45 249.74 184.822 250.361C184.193 250.983 182.497 251.221 181.68 251.556C180.864 251.89 180.361 251.747 179.544 250.982C178.727 250.218 172.633 247.302 170.56 246.49C168.486 245.677 166.225 245.152 166.476 244.721C166.727 244.291 167.167 243.67 167.23 243.383C167.292 243.096 165.534 243.192 165.534 242.953C165.534 242.714 165.534 241.042 165.408 240.755C165.282 240.468 164.025 240.516 163.397 240.564C162.77 240.612 160.696 240.516 160.57 240.277C160.444 240.038 159.314 239.321 159.314 239.321C159.314 239.321 158.497 240.134 158.12 240.181C157.743 240.229 156.989 240.229 157.052 239.942C157.115 239.656 157.491 239.082 157.491 239.082C157.491 239.082 154.664 237.887 153.784 237.17C152.905 236.454 147.564 229.619 144.737 226.895C141.91 224.171 136.004 217.05 133.365 213.418C130.726 209.786 123.815 200.801 123.375 200.514C122.935 200.228 122.244 199.654 122.181 199.272C122.118 198.889 120.359 195.687 120.359 195.21C120.359 194.732 120.044 193.967 120.17 193.346C120.296 192.724 119.353 191.243 119.039 190.144C118.725 189.045 117.971 184.552 117.72 183.835C117.468 183.119 117.783 182.354 117.531 181.828C117.28 181.303 116.652 180.968 116.652 180.968C116.652 180.968 115.961 179.056 116.212 178.626C116.463 178.196 117.406 177.623 117.594 177.002C117.783 176.38 118.474 171.314 118.285 170.311C118.097 169.307 118.474 168.303 117.908 167.682C117.343 167.061 117.091 166.201 117.091 165.532C117.091 164.862 117.217 164.002 116.903 163.285C116.589 162.568 115.709 162.138 115.709 161.613C115.709 161.087 115.772 159.796 115.646 159.51C115.52 159.223 114.453 159.175 114.327 158.984C114.201 158.793 114.515 156.929 114.515 156.929C114.515 156.929 116.562 157.115 118.859 157.401C120.317 159.942 121.745 162.35 122.864 164.36C122.362 164.636 122.033 165.081 122.033 165.587C122.033 166.124 122.403 166.593 122.957 166.863C122.734 167.867 122.433 170.026 123.336 172C124.562 174.683 122.263 179.638 122.493 182.437C122.691 184.848 123.46 186.867 124.747 187.791C124.531 188.925 124.252 189.95 125.175 191.708C125.175 191.708 124.882 189.983 125.041 187.978C125.16 188.043 125.28 188.103 125.405 188.151C125.405 188.151 125.263 188.052 125.052 187.856C125.157 186.66 125.427 185.375 126.018 184.303C126.018 184.303 125.099 187.276 127.551 190.366C129.603 192.952 130.739 194.31 130.922 195.096C130.892 194.289 130.677 192.417 129.391 190.949C127.704 189.025 127.704 187.684 127.628 187.043C127.551 186.402 128.164 185.06 128.164 184.886C128.164 184.711 130.004 187.393 130.004 187.393C130.004 187.393 131.061 189.056 132.248 190.11C132.073 190.866 132.014 191.514 132.533 192.057C132.533 192.057 132.559 191.387 132.68 190.457C133.047 190.723 133.415 190.912 133.76 190.95C133.76 190.95 133.353 190.451 132.792 189.702C133.012 188.398 133.415 186.839 134.142 185.819C134.142 185.819 134.449 183.195 132.686 180.688C130.923 178.181 129.237 174.974 128.853 173.692C128.47 172.409 128.394 170.485 128.01 169.494C127.698 168.687 126.828 166.722 125.977 165.892C126.003 165.794 126.018 165.692 126.018 165.587C126.018 164.75 125.125 164.071 124.025 164.071C123.754 164.071 123.497 164.113 123.262 164.187C122.423 162.767 120.98 160.294 119.409 157.471C121.326 157.719 123.317 158.032 124.378 158.363C126.828 159.128 132.42 159.558 132.609 159.463C132.798 159.367 135.939 153.011 137.258 149.713C138.578 146.415 141.907 131.074 141.656 129.736C141.656 129.736 120.797 128.255 120.734 127.824C120.672 127.394 121.363 121.755 121.739 120.513C122.117 119.27 122.556 116.355 122.933 115.685C123.31 115.016 122.523 114.785 122.523 114.785C122.523 114.785 117.191 130.248 116.191 136.966C116.18 137.039 116.169 137.116 116.158 137.189C114.275 137.336 110.637 138.617 112.364 144.08C112.847 145.609 113.554 147.296 114.39 149.055C113.812 152.938 113.358 155.978 113.358 155.978C113.358 155.978 110.526 157.119 110.526 157.88C110.526 158.64 108.526 160.541 108.526 160.922C108.526 161.302 106.527 161.936 106.527 162.569C106.527 163.203 105.693 163.837 105.693 163.837C105.693 163.837 105.194 163.963 104.36 164.344C103.527 164.724 103.194 164.724 102.361 165.611C101.528 166.499 98.862 169.921 99.3617 171.315C99.8614 172.709 100.028 172.836 100.361 174.357C100.694 175.878 101.528 176.765 102.527 178.413C103.527 180.06 103.886 179.084 103.817 180.405C103.747 181.726 103.678 182.201 103.678 182.201C103.678 182.201 103.261 182.148 103.261 182.941C103.261 183.734 103.469 185.583 103.469 186.376C103.469 187.169 103.539 189.97 103.608 191.132C103.678 192.295 103.747 194.831 103.678 195.412C103.608 195.994 103.469 196.522 103.469 196.839C103.469 197.156 103.052 196.945 103.4 197.367C103.747 197.79 103.886 198.054 103.747 199.745C103.608 201.436 103.469 204.026 103.4 204.977C103.33 205.928 103.469 206.087 103.955 206.457C104.442 206.827 105.067 207.302 105.067 208.042C105.067 208.782 105.484 210.948 105.484 212.587C105.484 214.225 106.039 215.916 106.456 216.867C106.873 217.818 107.082 218.452 107.429 219.192C107.776 219.932 107.915 221.147 108.193 221.993C108.471 222.838 109.444 225.428 109.721 226.379C109.999 227.33 109.999 228.651 110.486 229.497C110.972 230.343 111.875 232.139 112.431 233.249C112.986 234.359 119.934 244.928 120.976 246.513C122.018 248.098 125.005 251.744 125.908 252.907C126.811 254.07 130.424 257.61 131.397 258.931C132.369 260.252 133.967 261.89 135.079 262.683C136.19 263.476 137.649 264.374 138.483 264.797C139.317 265.22 140.775 266.118 140.845 266.277C140.915 266.435 140.845 268.02 141.261 269.025C141.678 270.029 142.929 271.033 143.485 271.667C144.04 272.301 144.388 272.301 144.318 272.671C144.249 273.041 143.554 274.15 143.832 275.419C144.11 276.687 145.221 276.898 145.083 277.427C144.944 277.955 144.249 278.695 144.249 280.281C144.249 281.866 144.735 282.764 145.43 283.452C146.124 284.138 146.055 284.403 145.986 284.773C145.916 285.142 145.708 286.041 145.569 287.415C145.43 288.789 146.125 290.163 146.472 290.85C146.819 291.537 147.097 291.801 146.333 292.805C145.569 293.809 143.554 294.919 143.277 295.764C142.999 296.61 143.277 297.614 143.415 298.829C143.554 300.045 143.763 301.524 144.11 301.577C144.458 301.63 145.847 301.524 145.847 301.894C145.847 302.264 145.013 304.008 144.666 305.646C144.319 307.285 143.624 310.349 143.207 311.354C142.79 312.358 141.956 317.167 139.872 323.191C137.788 329.215 135.843 335.451 133.689 342.268C133.381 343.246 133.092 344.15 132.824 344.986H265.048C265.116 344.924 265.18 344.865 265.242 344.808ZM132.46 186.401C132.819 187.465 132.664 188.413 132.463 189.251C131.243 187.58 129.596 185.094 129.548 183.777C129.548 183.777 131.617 183.893 132.46 186.401ZM124.872 185.934C124.939 186.56 124.876 187.087 124.787 187.586C124.02 186.757 122.847 184.98 123.109 182.027C123.109 182.027 124.642 183.777 124.872 185.934ZM112.225 141.04C113.101 138.186 114.246 137.569 116.04 138.007C115.594 141.001 115.029 144.795 114.532 148.128C112.959 144.804 111.918 142.039 112.225 141.04Z" fill="#B083D2"/>
<path d="M299.042 343.609C297.254 335.205 291.892 311.846 289.78 306.407C287.668 300.969 276.294 293.924 272.719 290.835C269.145 287.745 265.895 287.251 264.595 287.374C263.295 287.498 260.696 286.509 259.883 285.397C259.07 284.284 255.659 282.801 255.659 282.801C255.659 282.801 256.309 276.621 256.309 276.127C256.309 275.633 255.009 274.52 255.009 274.52C255.009 274.52 258.909 266.487 259.883 265.374C260.858 264.262 265.408 259.318 265.408 259.318C265.408 259.318 265.408 260.801 266.545 260.801C267.683 260.801 272.557 254.622 272.557 252.891C272.557 251.161 271.582 249.431 271.582 249.431C271.582 249.431 274.182 242.757 274.507 241.521C274.832 240.285 275.482 237.813 274.832 236.577C274.182 235.341 272.557 233.981 272.232 232.745C271.908 231.51 271.095 230.644 271.095 230.644C271.095 230.644 267.195 227.431 265.896 227.06C264.596 226.69 262.321 225.33 261.671 224.712C261.021 224.094 257.447 223.971 256.959 223.847C256.472 223.723 253.547 222.364 252.41 222.487C251.272 222.611 249.648 222.734 248.835 222.858C248.023 222.982 245.585 222.734 244.935 222.858C244.285 222.982 242.498 223.476 241.848 223.97C241.198 224.465 237.787 223.6 236.974 224.588C236.161 225.577 235.512 225.7 234.374 226.442C233.237 227.184 232.262 226.442 231.287 227.307C230.313 228.172 228.2 231.51 227.875 232.745C227.55 233.981 226.738 233.858 226.9 235.094C227.063 236.33 226.9 236.824 226.25 237.936C225.6 239.048 225.113 237.936 225.6 239.048C226.088 240.161 225.763 241.52 225.763 241.52C225.763 241.52 223.975 241.767 222.513 243.127C221.051 244.487 221.863 245.846 221.701 246.588C221.538 247.329 221.214 249.677 221.538 250.666C221.863 251.655 222.838 252.273 223.326 252.397C223.813 252.52 225.925 251.902 225.925 251.902C225.925 251.902 225.925 254.127 226.088 255.116C226.251 256.104 225.438 258.7 225.113 259.936C224.789 261.171 223.488 264.879 223.488 264.879L221.701 265.497C221.701 265.497 216.014 268.958 215.527 269.329C215.039 269.699 214.389 269.946 214.389 269.946C214.389 269.946 198.791 269.946 195.541 269.081C192.292 268.216 183.356 267.598 181.731 268.092C180.106 268.587 176.694 267.969 173.119 269.946C169.545 271.923 166.133 272.912 163.046 278.35C159.959 283.789 159.959 282.8 159.959 282.8C159.959 282.8 153.459 292.316 151.347 295.53C149.235 298.743 139.323 314.439 137.374 316.417C135.424 318.394 131.687 325.81 130.712 326.675C129.737 327.54 127.625 334.091 126.813 334.956C126.13 335.682 124.416 342.076 123.885 344.983H299.292C299.206 344.456 299.124 343.994 299.042 343.609Z" fill="#8A34CD"/>
<path d="M298.021 189.022C297.626 188.585 297.015 188.147 297.015 188.147C297.015 188.147 293.06 187.901 292.053 187.682L291.981 188.53C291.981 188.53 292.593 188.721 292.916 188.967C293.24 189.213 293.348 189.46 293.599 189.542C293.851 189.624 294.642 189.815 294.929 190.061C295.217 190.307 295.577 190.335 295.936 190.526C296.295 190.717 298.093 190.854 298.776 190.909C299.459 190.964 300.574 191.073 300.574 191.073C300.574 191.073 298.417 189.46 298.021 189.022Z" fill="#8A34CD"/>
<path d="M407.553 327.627C407.255 325.134 406.361 315.726 405.467 314.025C404.573 312.325 398.761 306.204 396.377 305.751C393.993 305.297 389.97 303.937 389.97 303.937C389.97 303.937 384.605 300.65 383.562 300.65C382.519 300.65 382.221 299.97 382.221 299.97L382.072 299.403L378.347 297.816C378.347 297.816 379.539 296.456 379.688 294.869C379.837 293.282 379.539 292.602 379.539 292.602C379.539 292.602 381.029 291.015 381.327 290.108C381.625 289.201 381.625 289.201 381.625 289.201C381.625 289.201 386.244 287.048 388.331 283.647C390.417 280.247 391.609 276.506 390.864 273.673C390.119 270.839 390.268 258.824 388.48 255.764C386.691 252.703 382.668 247.829 379.837 246.129C377.006 244.429 374.025 242.388 372.982 241.935C371.939 241.482 368.81 240.801 368.81 240.801C367.841 240.701 362.771 239.718 359.657 239.866C356.543 240.014 354.597 241.791 352.845 243.124C351.093 244.456 348.758 245.196 347.201 246.38C345.643 247.565 344.086 249.194 342.724 250.674C341.361 252.154 341.556 253.042 340.778 254.523C339.999 256.004 340.583 259.261 339.415 260.001C338.248 260.741 338.248 261.185 337.664 262.518C337.08 263.85 337.469 264.295 337.469 265.775C337.469 267.256 338.442 270.513 338.637 271.845C338.832 273.178 339.61 273.622 339.805 274.658C340 275.694 341.751 278.063 342.53 279.544C343.308 281.025 342.919 281.321 342.919 282.209C342.919 283.097 342.919 288.427 342.919 288.427L338.832 291.092C338.832 291.092 338.248 289.76 338.248 288.575C338.248 287.391 336.302 283.097 335.912 281.765C335.523 280.432 334.745 279.84 334.745 278.212C334.745 276.583 335.328 274.362 334.55 272.29C333.771 270.217 333.577 269.921 333.771 267.996C333.966 266.071 333.382 261.778 333.382 261.778L336.301 258.817C336.301 258.817 336.107 256.596 336.107 255.116C336.107 253.636 332.993 250.23 331.63 249.194C330.268 248.157 326.959 245.196 327.932 243.864C328.905 242.532 330.073 240.459 329.1 236.906C328.127 233.352 320.536 234.093 317.812 234.389C315.087 234.685 314.697 228.171 314.697 228.171C313.201 223.543 312.524 219.346 312.218 216.35L311.879 214.606C311.879 214.606 308.608 198.977 308.161 196.823C307.715 194.669 306.671 191.495 305.926 190.475C305.181 189.455 301.903 187.528 300.86 187.302C299.817 187.075 295.942 185.261 295.644 184.695C295.346 184.128 292.515 182.655 292.515 182.655C292.515 182.655 294.75 178.461 292.962 177.554C291.697 176.913 289.832 179.028 288.64 181.521C287.448 184.015 287.299 185.715 287.448 186.735C287.598 187.755 287.15 189.796 287.598 191.723C288.044 193.65 288.193 195.236 289.386 195.917C290.578 196.597 294.452 198.977 295.793 199.884C297.134 200.791 298.028 202.038 298.028 202.038C298.028 202.038 298.922 211.672 299.817 217.34C300.711 223.007 301.604 233.775 302.946 237.402C304.287 241.03 304.585 241.823 304.585 242.617C304.585 243.41 302.796 244.204 302.201 245.224C301.604 246.244 281.041 269.707 278.06 275.261C275.08 280.815 267.629 289.883 267.033 290.903C266.437 291.923 253.324 295.324 250.94 296.57C248.555 297.817 244.383 308.925 243.042 309.606C241.701 310.286 257.198 320.034 261.52 322.527C265.841 325.021 271.354 328.988 273.888 329.782C276.421 330.575 275.825 331.029 279.401 331.935C282.977 332.842 285.511 333.636 286.107 334.883C286.703 336.129 288.491 339.417 289.683 340.777C290.147 341.306 290.226 342.953 290.143 344.985H412.665C410.76 338.183 407.773 329.47 407.553 327.627ZM298.777 190.909C298.094 190.855 296.296 190.718 295.937 190.527C295.577 190.335 295.218 190.308 294.93 190.062C294.642 189.816 293.852 189.624 293.6 189.542C293.349 189.46 293.241 189.214 292.917 188.968C292.593 188.722 291.982 188.53 291.982 188.53L292.054 187.683C293.061 187.902 297.016 188.148 297.016 188.148C297.016 188.148 297.627 188.585 298.022 189.023C298.418 189.46 300.575 191.074 300.575 191.074C300.575 191.074 299.46 190.964 298.777 190.909ZM371.267 295.099C371.023 295.655 370.861 296.396 370.861 296.396C370.861 296.396 370.373 296.087 369.642 295.902C368.911 295.716 367.774 295.778 367.774 295.778C367.774 295.778 367.774 295.098 367.611 293.553C367.448 292.008 368.766 290.402 368.748 290.587C368.667 291.452 369.723 291.205 370.373 291.39C371.023 291.576 370.78 291.885 370.861 292.379C370.942 292.874 371.185 293.244 371.348 294.11C371.511 294.975 371.511 294.542 371.267 295.099Z" fill="#8A34CD"/>
<path d="M546.339 327.708C545.473 320.787 544.606 316.996 544.173 314.03C543.739 311.064 542.656 308.263 542.873 307.274C543.089 306.285 545.689 306.12 547.205 307.933C548.722 309.746 551.538 309.416 553.705 309.086C555.871 308.757 555.654 307.933 557.604 306.779C559.554 305.626 560.421 308.098 562.37 303.813C564.32 299.528 563.67 296.727 566.486 294.42C569.303 292.113 574.502 289.311 576.235 286.675C577.968 284.039 573.636 266.9 569.303 260.473C564.97 254.047 556.304 231.471 555.871 226.691C555.437 221.913 552.188 213.673 553.055 209.059C553.921 204.445 554.788 202.303 553.705 198.512C552.621 194.722 552.838 193.404 551.322 192.086C549.805 190.767 548.939 190.438 548.939 190.438C548.939 190.438 546.989 193.075 545.906 192.91C544.823 192.745 545.256 176.596 544.389 172.311C543.523 168.026 543.306 149.076 542.006 147.098C540.706 145.12 539.19 141.165 540.057 138.034C540.923 134.903 542.44 131.772 542.656 130.289C542.873 128.806 546.123 124.687 547.205 123.533C548.289 122.379 550.022 119.743 550.022 119.743C550.022 119.743 547.205 118.26 545.472 119.578L548.938 114.304C548.938 114.304 548.072 112.327 544.172 113.81C540.272 115.293 539.839 117.271 538.756 119.248C537.673 121.226 533.124 127.323 532.257 128.476C531.39 129.63 530.09 129.465 528.574 131.608C527.057 133.75 525.541 136.716 525.541 136.716C525.541 136.716 522.941 130.783 519.475 131.443C516.008 132.102 516.875 132.431 518.392 134.409C519.908 136.387 522.074 140.012 522.508 141.495C522.941 142.978 524.457 145.45 525.974 146.933C527.49 148.416 529.44 148.087 529.874 151.053C530.307 154.019 529.657 169.345 529.44 174.948C529.224 180.551 527.924 190.273 527.274 192.91C526.624 195.546 526.407 199.502 525.758 200.49C525.108 201.479 522.292 203.621 521.425 206.093C520.558 208.565 516.442 212.685 516.876 218.288C517.309 223.89 517.959 223.231 517.959 223.231C517.959 223.231 515.142 227.022 515.792 229.493C516.442 231.965 517.309 231.8 516.876 232.624C516.442 233.448 513.409 235.426 512.543 237.074C512.296 237.543 512.015 237.944 511.753 238.31C511.548 236.798 511.13 235.336 510.376 234.107C507.343 229.164 500.411 218.452 496.728 217.299C493.045 216.145 480.48 215.321 479.18 215.98C477.88 216.64 476.58 218.617 475.28 218.617C473.98 218.617 472.247 218.452 472.247 218.452L471.164 220.265C471.164 220.265 470.08 220.43 467.698 221.419L463.798 221.913L463.581 224.22C463.581 224.22 457.299 227.516 455.349 232.789C453.399 238.062 453.183 246.467 449.066 250.422C449.066 250.422 451.612 248.478 453.12 245.642C451.686 249.444 448.949 256.623 447.55 259.815L452.316 250.092C452.316 250.092 452.966 257.178 450.149 261.133C447.333 265.088 435.634 276.129 432.601 279.095C429.568 282.061 425.669 282.556 422.419 283.709L426.752 283.05C426.752 283.05 418.519 288.653 416.137 291.125C416.137 291.125 423.719 285.687 426.969 284.533C426.969 284.533 415.703 295.904 415.053 298.046C415.053 298.046 424.802 287.994 426.969 287.335C426.969 287.335 415.053 317.491 413.97 322.93C413.374 325.924 410.807 336.064 408.548 344.985H547.06C546.952 338.465 546.797 331.363 546.339 327.708ZM514.06 245.972C513.626 246.796 511.893 245.807 511.893 246.301C511.893 246.796 511.027 248.773 511.027 248.279C511.027 248.012 511.72 245.342 511.882 242.165C512.925 243.584 514.38 245.363 514.06 245.972Z" fill="#8A34CD"/>
<path d="M124.258 193.54C124.356 193.422 124.429 193.338 124.469 193.292C124.391 193.373 124.321 193.455 124.258 193.54Z" fill="#272425"/>
<path d="M124.468 193.293C124.48 193.281 124.489 193.267 124.501 193.255C124.501 193.255 124.489 193.268 124.468 193.293Z" fill="#272425"/>
<path d="M139.146 190.421C139.263 190.401 139.235 190.405 139.146 190.421Z" fill="#272425"/>
<path d="M138.642 190.512C138.654 190.51 138.665 190.509 138.677 190.507C138.664 190.509 138.652 190.511 138.642 190.512Z" fill="#272425"/>
<path d="M138.62 190.518C138.626 190.516 138.634 190.515 138.643 190.514C138.634 190.515 138.628 190.516 138.62 190.518Z" fill="#272425"/>
<path d="M138.676 190.507C138.692 190.504 138.709 190.501 138.728 190.498C138.711 190.501 138.694 190.504 138.676 190.507Z" fill="#272425"/>
<path d="M178.156 297.799C175.557 291.537 175.99 280.661 174.257 275.717C172.523 270.773 174.257 263.852 171.657 261.544C169.057 259.237 166.457 252.975 162.558 251.986C158.659 250.998 153.459 247.702 151.726 247.043C149.993 246.384 144.794 242.429 145.227 241.44C145.66 240.451 143.927 240.122 143.927 240.122L146.961 232.212L150.86 228.916C150.86 228.916 159.526 224.631 158.226 220.676L156.059 219.028C156.059 219.028 156.926 215.403 158.226 213.426C159.526 211.448 158.659 206.175 158.659 206.175C158.659 206.175 158.386 205.637 157.5 205.11C156.614 204.583 156.144 203.425 155.701 203.173C155.258 202.92 154.676 202.583 154.704 202.478C154.732 202.373 155.064 201.551 155.064 201.551C155.064 201.551 153.68 202.941 153.347 202.962C153.015 202.983 154.011 201.972 154.039 201.888C154.067 201.804 153.846 201.446 153.846 201.32C153.846 201.193 154.704 199.741 154.372 199.025C154.372 199.025 153.347 200.941 153.071 201.004C152.794 201.067 152.434 200.667 152.434 200.667C152.434 200.667 153.347 198.898 153.071 198.224C153.071 198.224 151.631 199.719 151.327 199.635C151.022 199.551 152.711 196.814 150.718 195.866C150.718 195.866 151.022 199.13 150.081 199.088C149.14 199.045 147.949 197.003 147.811 196.666C147.673 196.329 147.894 195.571 147.313 194.939C146.732 194.307 145.929 193.76 145.154 193.381C145.154 193.381 147.507 195.423 146.067 195.382C146.067 195.382 145.43 194.076 144.545 193.739C143.659 193.402 142.773 193.339 142.579 193.044C142.385 192.749 141.748 192.497 142.025 191.76C142.302 191.022 143.271 190.538 143.271 190.538C143.271 190.538 141.666 190.665 141.167 191.675C140.669 192.686 141.167 191.57 141.167 191.57L141.832 190.496C141.832 190.496 140.42 190.981 139.977 191.507C139.534 192.033 138.842 191.907 138.842 191.907C138.842 191.907 139.313 190.959 140.448 190.728C140.448 190.728 139.839 190.475 137.292 191.444C137.292 191.444 137.239 190.801 138.524 190.536C138.556 190.53 138.587 190.523 138.62 190.517C138.602 190.521 138.588 190.523 138.588 190.523C138.588 190.523 136.932 190.328 135.188 191.423C135.188 191.423 135.465 190.454 137.375 190.286C139.285 190.117 137.237 190.243 137.237 190.243C137.237 190.243 132.697 190.812 131.313 192.539C131.313 192.539 129.914 194.024 129.851 194.15C129.93 193.968 130.906 191.186 133.583 190.601C133.583 190.601 129.624 190.833 128.295 193.149L129.07 191.317C129.07 191.317 126.911 193.36 126.662 195.108C126.662 195.108 125.997 193.402 127.132 192.328C127.132 192.328 123.589 194.307 123.976 196.603C123.976 196.603 123.283 194.851 124.259 193.539C123.599 194.326 121.819 196.566 121.706 197.971L121.485 198.477C121.485 198.477 120.793 196.013 121.928 194.876C121.928 194.876 118.578 197.908 118.689 199.593L118.44 197.087C118.44 197.087 117.23 200.121 117.877 201.478C117.877 201.478 114.952 202.467 115.115 204.321C115.277 206.175 113.815 208.399 113.977 210.995C114.14 213.591 113.49 215.692 113.49 215.692C113.49 215.692 112.515 214.95 111.54 216.557C110.565 218.164 110.89 221.13 110.89 221.995C110.89 222.86 112.515 224.961 113.489 225.085C114.464 225.209 114.789 225.95 115.277 227.31C115.764 228.669 117.064 230.894 117.064 230.894L117.227 234.972L112.84 240.411L101.629 238.928C101.629 238.928 87.8181 231.018 87.4929 230.523C87.1681 230.029 86.8428 229.164 86.8428 229.164C86.8428 229.164 83.5932 227.434 83.2684 227.063C82.9436 226.692 68.1577 209.265 63.7707 207.535C59.3836 205.805 58.8962 201.726 57.5962 200.119C56.2966 198.513 51.4222 185.659 50.7722 184.052C50.1222 182.446 50.7722 178.985 50.7722 176.637C50.7722 174.289 49.4721 172.435 49.6348 169.963C49.7974 167.491 51.2596 157.727 51.2596 157.727C51.2596 157.727 48.1726 157.233 46.8725 156.862C46.8725 156.862 47.3599 152.783 48.4973 151.795C49.6347 150.806 54.184 147.345 54.834 146.233C55.484 145.121 56.9462 139.93 56.9462 139.188C56.9462 138.447 57.4336 137.458 57.4336 137.458C57.4336 137.458 63.7707 136.593 64.4202 136.469C64.4202 136.469 65.8824 134.368 60.358 135.109L57.921 134.244C57.921 134.244 66.0451 133.873 67.832 133.626C69.6195 133.379 70.1069 131.896 67.832 131.772C65.5572 131.649 60.6828 131.896 60.6828 131.896C60.6828 131.896 60.0328 130.166 58.5706 130.289C57.1084 130.413 54.6709 131.649 53.0461 131.649C51.4213 131.649 48.4969 131.649 48.4969 131.649C48.4969 131.649 60.1954 121.885 60.358 119.907C60.358 119.907 59.5458 117.559 56.621 120.278C53.6961 122.997 52.0713 124.233 52.0713 124.233C52.0713 124.233 54.5083 117.435 52.8839 117.683C51.2591 117.93 46.7095 126.21 45.7347 127.694C44.7599 129.177 42.8098 130.907 41.835 131.154C40.8602 131.401 39.0728 131.649 38.5854 133.132C38.098 134.615 37.9354 135.356 37.7728 136.839C37.6106 138.322 37.448 142.401 36.798 144.502C36.148 146.603 36.148 148.58 35.0105 150.435C33.8731 152.288 32.4109 153.895 32.5731 154.637C32.7357 155.378 31.1109 154.39 31.1109 154.39C31.1109 154.39 30.2987 159.704 30.1361 160.693C29.9735 161.682 28.3487 165.39 28.9987 168.603C29.6487 171.816 27.5365 175.277 27.5365 178.12C27.5365 180.962 29.8113 194.063 29.6487 198.265C29.4865 202.468 28.0239 208.153 27.3743 211.366C26.7243 214.579 17.3002 252.646 16.8128 257.961C16.3254 263.275 14.0506 265.376 14.8632 266.736C15.6754 268.095 9.98878 275.758 10.4762 277.859C10.9636 279.96 -3.33451 294.173 0.727302 294.791C4.78956 295.41 22.4999 293.679 28.6744 293.556C34.8484 293.432 41.9976 289.848 45.8973 288.735C49.7969 287.623 55.9709 285.028 57.921 285.398C59.8706 285.769 62.958 290.218 62.4706 292.073C61.9832 293.927 58.2458 302.949 56.4588 306.286C54.6714 309.623 50.9343 320.499 49.6343 324.949C48.3347 329.398 48.3347 332.487 47.1969 334.836C46.6028 336.063 44.5893 340.427 42.6164 344.985H201.45C193.29 327.821 179.884 301.961 178.156 297.799Z" fill="#8A34CD"/>
<path d="M138.728 190.498C138.939 190.459 139.073 190.435 139.146 190.421C139.042 190.44 138.856 190.474 138.728 190.498Z" fill="#272425"/>
<path d="M129.851 194.15C129.849 194.154 129.845 194.159 129.845 194.161C129.844 194.164 129.847 194.159 129.851 194.15Z" fill="#272425"/>
<path d="M749.766 343.61C749.116 339.408 737.417 314.442 736.117 308.757C734.817 303.072 731.243 292.443 729.293 288.735C727.344 285.027 722.469 280.825 719.219 276.87C715.97 272.915 706.546 271.432 703.621 269.702C700.697 267.971 696.797 267.724 696.147 266.736C695.497 265.747 694.198 264.017 694.523 262.533C694.848 261.05 694.523 257.095 694.523 257.095L689.648 255.365C689.648 255.365 690.623 248.938 691.273 247.702C691.923 246.466 695.823 242.017 695.823 239.298C695.823 239.298 698.747 238.309 699.397 236.578C700.047 234.848 700.047 231.14 700.047 229.657C700.047 228.174 698.097 226.444 698.097 226.444C698.097 226.444 699.072 222.736 699.072 221.5C699.072 220.264 699.397 218.781 698.747 217.051C698.097 215.321 697.447 212.849 696.148 212.107C694.848 211.366 691.273 207.905 691.273 207.905C691.273 207.905 687.374 204.197 683.149 203.703C683.149 203.703 676.325 202.961 674.7 203.208C673.076 203.455 676.975 201.972 676.975 201.972C676.975 201.972 673.726 202.22 671.776 203.208C669.826 204.197 670.476 202.467 670.476 202.467C670.476 202.467 665.927 202.22 662.677 204.939C659.427 207.658 658.777 207.905 656.503 209.388C654.228 210.871 655.528 211.86 653.253 214.085C650.979 216.31 649.354 215.815 649.354 218.287C649.354 220.759 650.654 223.725 651.303 224.961C651.953 226.197 651.303 227.68 651.303 227.68C651.303 227.68 649.029 230.399 649.679 232.871C650.329 235.343 652.603 237.814 653.253 238.803C653.903 239.792 656.503 239.297 656.503 239.297C656.503 239.297 658.777 243.005 658.777 244.736C658.777 246.466 659.427 251.162 659.427 251.162C659.427 251.162 658.127 253.387 656.828 254.376C655.528 255.364 651.303 259.072 651.303 257.095C651.303 255.117 657.153 252.893 656.178 251.904C655.203 250.915 648.379 243.994 644.154 240.039C639.93 236.084 628.556 227.68 626.281 227.927C624.006 228.174 622.707 229.163 621.082 227.68C619.457 226.197 605.159 195.051 603.859 192.332C602.559 189.614 594.435 178.984 593.46 176.76C592.485 174.535 592.485 173.794 592.16 172.311C591.835 170.828 589.885 163.906 589.885 162.67C589.885 161.434 592.485 154.266 592.81 153.03C593.135 151.794 593.785 149.075 592.81 147.592C591.835 146.109 590.211 143.389 589.561 142.401C588.91 141.412 591.835 133.502 591.835 133.502L607.759 132.513C607.759 132.513 613.608 113.233 611.333 104.334C611.333 104.334 605.159 97.413 604.834 96.4244C604.509 95.4356 604.509 95.4356 604.509 95.4356C604.509 95.4356 601.259 96.4244 599.96 96.4244C598.66 96.4244 591.836 95.683 591.836 95.683L577.862 86.29C577.862 86.29 575.927 91.0379 573.551 97.6064C572.017 95.9414 570.125 94.5426 567.789 93.6231C557.212 89.4618 555.769 86.7599 556.029 83.552C556.183 83.564 556.338 83.5707 556.496 83.5707C558.964 83.5707 560.964 82.0489 560.964 80.172C560.964 78.8526 559.974 77.7115 558.53 77.1484C558.729 76.185 558.582 73.807 558.582 73.395C558.582 72.9636 559.23 70.4991 561.903 67.9726C564.576 65.4461 563.604 61.626 563.604 61.626C563.442 62.4885 563.604 65.8779 561.579 66.0622C559.554 66.2473 557.934 69.4512 557.934 69.4512C557.934 68.6501 557.853 68.219 560.04 65.9389C562.227 63.6591 561.66 61.5024 561.66 61.5024C561.093 62.4882 560.445 63.4124 558.987 64.3983C557.529 65.3841 556.962 66.3083 556.962 66.3083C557.367 62.6112 560.364 59.6537 560.364 59.6537C560.121 59.9 558.906 60.7629 557.61 61.6254C556.314 62.4879 555.666 65.1991 555.666 65.1991L555.584 63.6584C556.881 60.2081 555.179 59.0989 555.179 59.0989C555.261 59.9 556.313 61.0706 554.693 62.7343C553.073 64.3979 553.154 68.403 553.154 68.403C551.939 66.5547 552.506 64.2746 552.506 64.2746C551.696 65.3838 551.94 68.1567 552.83 69.2042C553.721 70.2517 553.964 73.0246 553.802 75.4894C553.756 76.1847 553.853 76.8051 554.014 77.3455C552.816 77.9553 552.028 78.9931 552.028 80.1717C552.028 81.652 553.274 82.9077 555.01 83.374C554.888 85.4959 555.828 89.0092 562.264 91.6453C567.139 93.6422 570.503 95.2589 573.17 98.6627C569.446 109.056 564.864 123.398 564.864 131.03L578.286 140.545L577.884 141.464C577.884 141.464 575.604 141.158 575.202 142.994C574.8 144.83 573.459 144.524 573.861 146.768C574.263 149.013 573.191 154.317 574.398 156.868C575.605 159.418 577.214 162.784 577.617 164.315C578.019 165.845 578.555 176.148 578.555 176.148L577.348 177.168C577.348 177.168 577.214 183.901 578.153 186.961C579.092 190.022 580.969 209.302 582.042 212.873C583.115 216.443 587.004 246.129 588.881 250.821C590.759 255.514 588.345 276.63 589.284 282.547C590.222 288.464 586.601 292.646 588.747 296.115C590.893 299.583 591.161 300.909 591.966 303.663C592.77 306.418 595.185 311.722 596.257 312.742C597.33 313.762 600.817 316.925 602.292 316.823C603.767 316.721 604.438 316.109 604.438 316.109C604.438 316.109 603.499 319.169 602.963 323.658C602.427 328.146 598.269 340.796 597.599 342.122C597.387 342.54 596.974 343.631 596.496 344.985H750C749.896 344.406 749.816 343.94 749.766 343.61Z" fill="#8A34CD"/>
<path d="M314.308 26.1096C312.584 24.9511 311.655 24.2773 311.655 24.2773C311.926 24.631 312.891 25.278 314.308 26.1096Z" fill="#8A34CD"/>
<path d="M392.713 90.2098C392.691 90.2017 392.666 90.195 392.64 90.1886C392.686 90.2041 392.713 90.2098 392.713 90.2098Z" fill="#8A34CD"/>
<path d="M391.287 87.227C391.524 84.6057 389.227 83.4006 388.038 82.7979C386.85 82.1951 380.789 78.7002 380.314 78.0673C379.965 77.6021 376.686 76.5019 374.925 75.6404C375.201 75.1644 375.358 74.6395 375.358 74.086C375.358 72.3479 373.845 70.8797 371.767 70.3987C371.776 70.0236 371.754 69.6287 371.691 69.209C370.955 64.3401 365.565 57.8131 359.673 54.6598C353.461 51.3345 354.362 48.5408 354.763 47.7893C356.422 48.4838 358.111 49.169 359.831 49.8394C387.796 60.7436 402.602 63.7826 402.602 63.7826L380.512 55.5598L379.337 49.8394L390.852 33.5726L379.337 27.8525L374.637 30.8915L374.872 26.2438C374.872 26.2438 363.357 18.3784 351.371 19.9871C351.371 19.9871 339.621 33.9303 340.326 39.293C340.326 39.293 321.484 30.3193 314.309 26.1094C319.985 29.9248 334.344 39.0419 353.055 47.0615C352.54 47.9281 351.389 51.0982 358.963 55.1526C364.926 58.3445 369.696 65.6055 370.291 69.5509C370.328 69.7946 370.324 70.0175 370.305 70.2317C370.3 70.2317 370.295 70.2314 370.295 70.2314C367.492 70.2314 365.223 71.9571 365.223 74.086C365.223 75.3977 366.086 76.5552 367.403 77.2514C367.671 78.1468 368.203 79.1524 369.224 80.1467C372.195 83.0392 377.423 86.5643 380.315 89.0952C383.207 91.626 381.265 93.5243 380.394 94.8501C380.394 94.8501 381.701 94.0365 382.137 92.5301C382.573 91.0236 381.899 88.7338 381.78 88.7338C381.78 88.7338 384.157 90.7524 383.365 93.6752C382.573 96.5975 383.404 95.5731 384.315 96.8087C384.315 96.8087 383.246 95.2419 383.84 94.127C384.434 93.0121 384.553 90.4813 383.919 89.1857C383.285 87.8901 382.414 86.0219 382.375 85.9314C382.335 85.8409 388.237 88.2816 388.791 91.2345C389.346 94.1874 390.534 94.5186 391.168 94.8803C391.168 94.8803 388.791 90.6921 388.831 88.824C388.871 86.9558 388.356 85.9918 386.89 84.8768C386.89 84.8768 390.217 85.3287 390.614 87.7996C390.988 90.1377 392.178 90.0746 392.64 90.1886C392.323 90.0824 391.079 89.5172 391.287 87.227Z" fill="#8A34CD"/>
<path d="M160.47 32.0728L155.487 29.9305L152.238 8.17822C152.238 8.17822 117.142 33.8857 113.025 36.5224C113.025 36.5224 114.759 53.4959 118.875 63.2184L128.696 54.8612C129.597 56.4817 130.659 57.9925 131.873 59.2498C135.307 62.8075 135.036 66.954 134.302 69.6508C134.25 69.6495 134.2 69.6451 134.148 69.6451C131.934 69.6451 130.14 70.9548 130.14 72.5702C130.14 73.0499 130.301 73.5011 130.581 73.9006C130.101 74.5627 129.598 75.6665 129.598 77.4056C129.598 80.7323 128.948 82.9319 127.107 84.5953C125.266 86.2586 126.024 88.8662 126.024 88.1364C126.024 88.0828 125.699 86.205 127.216 85.2392C127.216 85.2392 126.782 87.1171 127.216 89.1022C127.649 91.0873 127.323 91.6773 126.349 92.3749C126.349 92.3749 128.732 91.57 128.082 89.6385C127.432 87.707 128.948 86.5268 128.948 86.5268C128.948 86.5268 128.624 89.0482 129.923 91.087C131.223 93.1257 131.873 94.1988 131.873 94.1988C131.873 94.1988 130.789 90.5503 130.465 89.2628C130.14 87.9752 130.14 86.5264 130.14 86.5264C130.14 86.5264 132.523 88.4579 132.848 90.6039C133.173 92.75 133.39 93.3403 135.014 94.0915C135.014 94.0915 133.606 91.3552 133.931 90.1212C134.256 88.8873 132.956 87.2776 132.848 86.9022C132.74 86.5268 135.448 87.707 136.098 90.2821L137.506 92.7503C137.506 92.7503 136.531 89.9603 136.423 88.7801C136.314 87.5998 135.448 86.6877 135.123 86.2582C134.798 85.8288 134.906 84.2731 135.123 83.1998C135.34 82.1268 137.072 79.7122 136.964 78.7465C136.876 77.9587 136.86 75.9213 136.798 74.7605C137.629 74.2245 138.156 73.4431 138.156 72.5698C138.156 71.4164 137.238 70.4215 135.909 69.9455C136.603 67.0107 135.825 62.6147 129.707 54.7409C129.588 54.5877 129.487 54.4352 129.376 54.2827L131.657 52.3421L144.005 56.9563C144.005 56.9563 150.071 55.9674 153.754 52.8366C157.437 49.7053 161.987 43.6082 162.203 39.9828C162.42 36.3575 160.47 32.0728 160.47 32.0728Z" fill="#8A34CD"/>
<path d="M306.99 72.5141L308.074 69.2183C308.074 69.2183 296.591 62.1323 287.493 60.8139C278.394 59.4955 271.461 57.5181 271.461 57.5181C271.461 57.5181 263.417 74.9092 257.757 89.2744C257.701 89.2825 257.649 89.2905 257.594 89.2986C244.259 91.1835 235.423 92.5803 231.009 94.6278C230.333 94.2547 229.505 94.0318 228.606 94.0318C227.207 94.0318 225.974 94.5654 225.235 95.379C222.883 95.802 213.016 98.2363 220.41 108.462C228.758 120.007 233.311 116.89 239.534 115.504C245.756 114.119 248.336 116.197 249.247 117.005C249.247 117.005 247.577 112.965 238.623 114.581C238.623 114.581 245.453 112.734 247.577 111.81C249.521 110.965 253.739 112.244 254.912 113.087C253.669 112.029 248.001 107.67 242.113 110.656C241.658 110.887 238.015 109.848 236.498 109.617C236.498 109.617 244.389 108.347 247.273 108.116C250.157 107.885 249.398 105.23 249.095 103.844C249.095 103.844 248.032 107.539 242.72 107.885C237.408 108.231 237.712 107.308 236.953 106.731C236.194 106.153 234.221 106.038 232.248 105.576C230.275 105.114 227.999 104.075 228.757 102.921C229.429 101.9 232.232 100.787 231.609 99.2644C232.286 98.7083 232.704 97.9665 232.704 97.1489C232.704 96.4215 232.374 95.7541 231.825 95.2238C233.155 94.6429 234.962 93.9882 237.257 93.4549C241.521 92.464 251.328 90.4889 257.667 89.5044C254.32 98.0198 251.834 105.43 252.397 107.45C252.397 107.45 266.262 114.206 268.645 115.36C271.028 116.513 295.725 121.951 295.725 121.951L298.975 109.098C298.975 109.098 310.457 107.45 313.056 105.307C315.656 103.165 326.272 88.3338 327.788 85.038C329.305 81.7422 329.305 81.7422 329.305 81.7422L306.99 72.5141Z" fill="#8A34CD"/>
<path d="M254.912 113.087C255.076 113.227 255.166 113.312 255.166 113.312C255.114 113.243 255.021 113.166 254.912 113.087Z" fill="#8A34CD"/>
<path d="M553.155 27.9698V26.0457L568.839 13.3455L529.012 35.5731C527.315 32.7228 525.722 28.4093 524.568 24.314C523.686 21.1811 526.395 18.6355 528.818 17.0519C529.395 17.6064 530.277 17.9687 531.278 17.9687C532.463 17.9687 533.482 17.4652 534.02 16.7294C535.42 16.1733 535.419 13.3864 536.145 12.6328C536.933 11.8162 537.863 10.9993 539.653 9.03934C541.442 7.07902 545.451 5.01009 545.451 5.01009C543.662 4.90114 539.868 7.13366 540.011 6.91577C540.154 6.69788 542.23 5.11903 543.375 4.7922C544.52 4.4657 545.093 4.13887 545.022 3.32196C544.95 2.50538 544.52 1.41627 544.52 1.41627C544.52 1.41627 542.444 2.39643 542.659 2.23285C542.874 2.0696 543.804 1.25269 543.804 1.25269L542.158 0.327167L541.943 0.762609C541.943 0.762609 540.435 2.24458 539.48 3.24452C539.969 2.55801 540.55 1.66098 540.798 1.25235C541.227 0.544385 541.156 0 541.156 0C541.156 0 539.509 2.23218 538.507 3.32129C537.505 4.41039 536.074 4.46469 533.998 6.20713C531.922 7.94956 532.924 9.03834 533.21 10.6175C533.407 11.7009 532.466 12.6952 531.85 13.2204C531.664 13.1943 531.474 13.1765 531.277 13.1765C529.538 13.1765 528.128 14.2492 528.128 15.5723C528.128 15.7654 528.166 15.9507 528.223 16.1304C526.993 16.53 525.654 17.3576 524.315 19.3099C520.616 25.0782 525.704 32.282 528.709 35.741L522.291 39.3224L489.404 62.4139L510.907 53.3698C512.677 60.1049 526.085 74.1524 526.085 74.1524L530.386 71.0734C530.386 71.0734 530.386 64.7232 530.639 64.1459C530.892 63.5687 534.181 68.5717 534.181 68.5717C534.181 68.5717 538.987 64.9156 540.252 63.1839C541.517 61.4522 569.344 39.9 569.344 39.9L553.155 27.9698Z" fill="#8A34CD"/>
</svg>
